<?xml version="1.0" encoding="utf-8"?>
<!-- Generator: Adobe Illustrator 15.0.0, SVG Export Plug-In . SVG Version: 6.00 Build 0)  -->
<!DOCTYPE svg PUBLIC "-//W3C//DTD SVG 1.1//EN" "http://www.w3.org/Graphics/SVG/1.1/DTD/svg11.dtd">
<svg version="1.1" id="レイヤー_1" xmlns="http://www.w3.org/2000/svg" xmlns:xlink="http://www.w3.org/1999/xlink" x="0px"
	 y="0px" width="222px" height="46px" viewBox="0 0 222 46" enable-background="new 0 0 222 46" xml:space="preserve">
<g>
	<path fill="#FFFFFF" d="M32.589,43.25c-2.76,1.26-5.939,1.891-9.54,1.891c-3.28,0-6.311-0.541-9.09-1.621
		c-2.78-1.08-5.189-2.609-7.229-4.59c-2.04-1.979-3.641-4.35-4.801-7.109s-1.739-5.8-1.739-9.12c0-3.399,0.589-6.479,1.77-9.24
		c1.18-2.76,2.81-5.109,4.89-7.05c2.08-1.939,4.521-3.43,7.32-4.471c2.8-1.039,5.82-1.56,9.061-1.56c3,0,5.949,0.53,8.85,1.591
		c2.899,1.06,5.25,2.609,7.05,4.649l-6.96,6.96c-0.96-1.32-2.22-2.3-3.78-2.939c-1.56-0.641-3.16-0.961-4.8-0.961
		c-1.8,0-3.45,0.33-4.95,0.99s-2.79,1.57-3.869,2.73c-1.08,1.16-1.921,2.529-2.521,4.109c-0.6,1.581-0.9,3.311-0.9,5.19
		c0,1.92,0.301,3.681,0.9,5.28s1.43,2.97,2.49,4.109c1.06,1.141,2.329,2.031,3.81,2.67c1.479,0.641,3.1,0.961,4.86,0.961
		c2.04,0,3.819-0.4,5.34-1.201c1.52-0.799,2.739-1.839,3.66-3.119l7.14,6.72C37.668,40.279,35.349,41.99,32.589,43.25z"/>
	<path fill="#FFFFFF" d="M74.396,28.939c0,2.441-0.44,4.65-1.319,6.631c-0.881,1.979-2.08,3.66-3.601,5.039
		c-1.521,1.381-3.28,2.451-5.279,3.211c-2.001,0.76-4.141,1.14-6.42,1.14c-2.241,0-4.371-0.38-6.391-1.14
		c-2.021-0.76-3.779-1.83-5.279-3.211c-1.5-1.379-2.691-3.06-3.57-5.039c-0.881-1.98-1.32-4.189-1.32-6.631
		c0-2.439,0.439-4.639,1.32-6.6c0.879-1.959,2.07-3.619,3.57-4.98c1.5-1.359,3.259-2.399,5.279-3.119
		c2.02-0.721,4.149-1.08,6.391-1.08c2.279,0,4.419,0.359,6.42,1.08c1.999,0.72,3.759,1.76,5.279,3.119
		c1.521,1.361,2.72,3.021,3.601,4.98C73.956,24.301,74.396,26.5,74.396,28.939z M64.917,28.939c0-0.959-0.16-1.898-0.48-2.819
		c-0.32-0.92-0.779-1.729-1.38-2.431c-0.6-0.699-1.34-1.27-2.22-1.709s-1.9-0.66-3.06-0.66c-1.161,0-2.181,0.221-3.061,0.66
		s-1.61,1.01-2.189,1.709c-0.581,0.701-1.021,1.511-1.32,2.431c-0.3,0.921-0.45,1.86-0.45,2.819c0,0.961,0.15,1.9,0.45,2.82
		c0.3,0.921,0.75,1.75,1.35,2.49c0.601,0.74,1.34,1.33,2.221,1.77c0.879,0.441,1.899,0.66,3.06,0.66s2.18-0.219,3.06-0.66
		c0.88-0.439,1.62-1.029,2.221-1.77c0.6-0.74,1.05-1.569,1.35-2.49C64.767,30.84,64.917,29.9,64.917,28.939z"/>
	<path fill="#FFFFFF" d="M99.458,44V27.68c0-0.84-0.07-1.639-0.21-2.4c-0.141-0.759-0.37-1.43-0.69-2.01
		c-0.32-0.579-0.771-1.039-1.35-1.379c-0.58-0.34-1.311-0.511-2.19-0.511s-1.649,0.171-2.31,0.511s-1.21,0.81-1.65,1.409
		c-0.44,0.601-0.771,1.29-0.989,2.07c-0.221,0.78-0.33,1.59-0.33,2.43V44h-9.9V14.12h9.54v4.14h0.12c0.36-0.639,0.83-1.27,1.41-1.89
		c0.579-0.62,1.26-1.149,2.04-1.591c0.78-0.439,1.629-0.799,2.55-1.079c0.92-0.28,1.899-0.421,2.94-0.421
		c1.999,0,3.699,0.361,5.1,1.08c1.399,0.721,2.529,1.65,3.39,2.791c0.86,1.14,1.479,2.45,1.86,3.93c0.38,1.48,0.57,2.961,0.57,4.439
		V44H99.458z"/>
	<path fill="#FFFFFF" d="M127.033,21.439v11.445c0,1.404,0.271,2.459,0.811,3.162s1.51,1.053,2.91,1.053
		c0.479,0,0.99-0.039,1.529-0.119c0.54-0.08,0.99-0.2,1.351-0.36l0.12,7.2c-0.681,0.24-1.541,0.449-2.58,0.63
		c-1.041,0.18-2.08,0.271-3.12,0.271c-2.001,0-3.681-0.252-5.04-0.752c-1.36-0.502-2.45-1.223-3.27-2.166
		c-0.82-0.942-1.41-2.065-1.771-3.369c-0.36-1.303-0.54-2.757-0.54-4.361V21.439h-4.8V14.12h4.74V6.26h9.659v7.86h7.021v7.319
		H127.033z"/>
	<path fill="#FFFFFF" d="M138.26,18.2c1.76-1.681,3.811-2.94,6.15-3.78s4.729-1.26,7.17-1.26c2.52,0,4.649,0.311,6.39,0.93
		c1.74,0.621,3.15,1.58,4.23,2.881c1.08,1.3,1.869,2.939,2.37,4.92c0.499,1.979,0.75,4.33,0.75,7.049V44h-9v-3.18h-0.181
		c-0.76,1.24-1.91,2.2-3.45,2.88s-3.21,1.021-5.01,1.021c-1.2,0-2.44-0.161-3.72-0.48c-1.28-0.32-2.451-0.84-3.51-1.561
		c-1.061-0.72-1.931-1.68-2.61-2.88c-0.681-1.2-1.02-2.679-1.02-4.44c0-2.159,0.589-3.899,1.77-5.219
		c1.18-1.32,2.7-2.341,4.56-3.061c1.86-0.721,3.931-1.2,6.21-1.439c2.28-0.24,4.5-0.361,6.66-0.361V24.8
		c0-1.479-0.52-2.569-1.56-3.271c-1.041-0.699-2.32-1.049-3.84-1.049c-1.401,0-2.751,0.299-4.05,0.899
		c-1.301,0.601-2.411,1.32-3.33,2.16L138.26,18.2z M156.32,30.98h-1.261c-1.08,0-2.17,0.051-3.27,0.149
		c-1.101,0.101-2.08,0.29-2.94,0.57s-1.57,0.69-2.13,1.229c-0.561,0.541-0.84,1.251-0.84,2.131c0,0.561,0.129,1.04,0.39,1.439
		c0.26,0.4,0.59,0.721,0.99,0.96c0.399,0.24,0.859,0.411,1.38,0.511c0.52,0.1,1.021,0.149,1.5,0.149c2,0,3.53-0.55,4.59-1.649
		c1.06-1.101,1.591-2.59,1.591-4.471V30.98z"/>
	<path fill="#FFFFFF" d="M192.53,23.779c-0.562-0.719-1.32-1.299-2.28-1.739s-1.94-0.66-2.94-0.66c-1.04,0-1.979,0.21-2.819,0.63
		c-0.841,0.42-1.561,0.98-2.16,1.68c-0.601,0.701-1.071,1.511-1.41,2.431c-0.341,0.921-0.51,1.9-0.51,2.94s0.159,2.02,0.479,2.939
		s0.789,1.73,1.41,2.43c0.62,0.701,1.359,1.251,2.22,1.65c0.86,0.4,1.83,0.6,2.91,0.6c0.999,0,1.989-0.189,2.97-0.57
		c0.98-0.379,1.771-0.93,2.37-1.649l5.46,6.66c-1.24,1.2-2.84,2.14-4.8,2.819s-4.04,1.021-6.24,1.021c-2.36,0-4.563-0.36-6.609-1.08
		c-2.045-0.72-3.823-1.771-5.331-3.149c-1.51-1.381-2.696-3.051-3.562-5.01c-0.865-1.96-1.298-4.18-1.298-6.66
		c0-2.439,0.433-4.641,1.298-6.601s2.052-3.63,3.562-5.01c1.508-1.38,3.286-2.439,5.331-3.181c2.046-0.739,4.229-1.109,6.55-1.109
		c1.08,0,2.149,0.1,3.21,0.3c1.06,0.2,2.079,0.471,3.06,0.81c0.98,0.341,1.88,0.761,2.7,1.26c0.819,0.502,1.53,1.051,2.13,1.65
		L192.53,23.779z"/>
	<path fill="#FFFFFF" d="M214.41,21.439v11.445c0,1.404,0.271,2.459,0.811,3.162s1.51,1.053,2.91,1.053
		c0.479,0,0.99-0.039,1.529-0.119c0.54-0.08,0.99-0.2,1.351-0.36l0.12,7.2c-0.681,0.24-1.541,0.449-2.58,0.63
		c-1.041,0.18-2.08,0.271-3.12,0.271c-2.001,0-3.681-0.252-5.04-0.752c-1.36-0.502-2.45-1.223-3.27-2.166
		c-0.82-0.942-1.41-2.065-1.771-3.369c-0.36-1.303-0.54-2.757-0.54-4.361V21.439h-4.8V14.12h4.74V6.26h9.659v7.86h7.021v7.319
		H214.41z"/>
</g>
</svg>
