<?xml version="1.0" encoding="utf-8"?>
<!-- Generator: Adobe Illustrator 15.0.0, SVG Export Plug-In . SVG Version: 6.00 Build 0)  -->
<!DOCTYPE svg PUBLIC "-//W3C//DTD SVG 1.1//EN" "http://www.w3.org/Graphics/SVG/1.1/DTD/svg11.dtd">
<svg version="1.1" id="レイヤー_1" xmlns="http://www.w3.org/2000/svg" xmlns:xlink="http://www.w3.org/1999/xlink" x="0px"
	 y="0px" width="140px" height="51px" viewBox="0 0 140 51" enable-background="new 0 0 140 51" xml:space="preserve">
<g>
	<g>
		<g>
			<g>
				<path fill="#7FBE26" d="M5.939,47.504c-0.371,0-0.674-0.191-0.674-0.424s-0.006-0.424-0.013-0.424s-0.211,0.229-0.454,0.509
					c0,0-0.066,0.077-0.454,0.256c-0.388,0.178-0.8,0.268-1.235,0.268c-0.488,0-0.923-0.096-1.307-0.287
					c-0.383-0.191-0.707-0.447-0.973-0.765c-0.267-0.317-0.469-0.687-0.608-1.104s-0.208-0.854-0.208-1.307
					c0-0.452,0.07-0.887,0.215-1.3c0.144-0.413,0.349-0.777,0.613-1.091c0.267-0.314,0.589-0.563,0.968-0.745
					s0.804-0.274,1.274-0.274c0.479,0,0.884,0.092,1.215,0.274c0.33,0.183,0.33,0.183,0.33,0.183
					c0.242,0.23,0.446,0.418,0.453,0.418c0.008,0,0.014-0.303,0.014-0.673V38.3c0-0.37,0.303-0.673,0.674-0.673h0.795
					c0.371,0,0.674,0.303,0.674,0.673v8.53c0,0.37-0.303,0.673-0.674,0.673H5.939z M5.188,44.238c0-0.209-0.037-0.414-0.111-0.615
					c-0.074-0.199-0.179-0.378-0.313-0.535c-0.136-0.156-0.299-0.283-0.49-0.379c-0.192-0.096-0.409-0.144-0.653-0.144
					c-0.252,0-0.475,0.048-0.666,0.144S2.6,42.93,2.469,43.082c-0.13,0.152-0.229,0.328-0.293,0.529
					c-0.066,0.199-0.099,0.404-0.099,0.613s0.032,0.416,0.099,0.621c0.064,0.205,0.163,0.385,0.293,0.542
					c0.131,0.157,0.293,0.283,0.484,0.379s0.414,0.144,0.666,0.144c0.244,0,0.461-0.048,0.653-0.144
					c0.191-0.096,0.354-0.222,0.49-0.379c0.135-0.157,0.239-0.335,0.313-0.536C5.15,44.652,5.188,44.447,5.188,44.238z"/>
			</g>
			<g>
				<path fill="#7FBE26" d="M18.07,44.33c0,0.086,0,0.174,0,0.261s0,0.087,0,0.087c-0.008,0.089-0.316,0.161-0.688,0.161h-3.369
					c-0.371,0-0.642,0.157-0.602,0.349c0,0,0,0,0.092,0.147c0.092,0.148,0.209,0.276,0.353,0.386s0.305,0.194,0.483,0.255
					c0.179,0.062,0.363,0.092,0.555,0.092c0.34,0,0.628-0.063,0.863-0.19c0.235-0.125,0.235-0.125,0.235-0.125
					c0.187-0.2,0.595-0.203,0.908-0.005l0.352,0.222c0.313,0.198,0.366,0.584,0.119,0.86c0,0-0.258,0.287-0.759,0.526
					s-1.082,0.358-1.744,0.358c-0.488,0-0.949-0.075-1.385-0.229c-0.436-0.151-0.817-0.374-1.144-0.666
					c-0.327-0.292-0.583-0.65-0.771-1.078c-0.188-0.427-0.281-0.914-0.281-1.463c0-0.531,0.092-1.013,0.274-1.444
					c0.183-0.431,0.431-0.797,0.745-1.098c0.313-0.3,0.684-0.533,1.11-0.698c0.427-0.166,0.889-0.248,1.386-0.248
					c0.478,0,0.918,0.08,1.318,0.24c0.401,0.162,0.745,0.395,1.033,0.7c0.287,0.305,0.512,0.675,0.672,1.11
					C17.99,43.275,18.07,43.772,18.07,44.33z M15.424,43.506c0.371,0,0.625-0.284,0.566-0.631c0,0,0,0-0.213-0.244
					s-0.533-0.366-0.961-0.366c-0.209,0-0.4,0.033-0.574,0.099c-0.175,0.064-0.326,0.154-0.458,0.268
					c-0.13,0.113-0.235,0.246-0.313,0.398s-0.078,0.152-0.078,0.152c-0.029,0.178,0.25,0.324,0.621,0.324H15.424z"/>
			</g>
			<g>
				<path fill="#7FBE26" d="M26.379,42.434c-0.258,0.266-0.64,0.347-0.848,0.179c0,0,0,0-0.234-0.113
					c-0.236-0.113-0.484-0.17-0.745-0.17c-0.2,0-0.386,0.039-0.556,0.118c-0.17,0.078-0.255,0.213-0.255,0.404
					c0,0.183,0.094,0.313,0.28,0.393c0.188,0.078,0.49,0.165,0.908,0.261c0.244,0.053,0.49,0.127,0.739,0.223
					c0.248,0.096,0.472,0.222,0.673,0.379c0.199,0.156,0.361,0.349,0.482,0.574c0.123,0.228,0.184,0.497,0.184,0.811
					c0,0.41-0.083,0.756-0.248,1.039c-0.166,0.283-0.381,0.512-0.646,0.686c-0.267,0.175-0.564,0.301-0.895,0.379
					c-0.332,0.078-0.663,0.117-0.994,0.117c-0.531,0-1.052-0.084-1.562-0.254c-0.509-0.17-0.737-0.344-0.737-0.344
					c-0.295-0.224-0.327-0.627-0.072-0.896l0.274-0.29c0.255-0.269,0.655-0.315,0.89-0.104c0,0,0,0,0.279,0.139
					s0.575,0.209,0.889,0.209c0.174,0,0.347-0.041,0.517-0.124s0.255-0.229,0.255-0.438c0-0.2-0.105-0.348-0.314-0.443
					c-0.209-0.097-0.535-0.196-0.979-0.301c-0.227-0.053-0.453-0.122-0.68-0.209s-0.429-0.205-0.607-0.353
					c-0.179-0.148-0.325-0.331-0.438-0.55c-0.112-0.217-0.17-0.479-0.17-0.783c0-0.393,0.084-0.726,0.249-1s0.378-0.498,0.64-0.673
					c0.262-0.174,0.552-0.302,0.869-0.386c0.318-0.082,0.635-0.123,0.947-0.123c0.488,0,0.965,0.075,1.432,0.229
					c0.465,0.152,0.642,0.284,0.642,0.284c0.297,0.221,0.329,0.62,0.071,0.886L26.379,42.434z"/>
			</g>
			<g>
				<path fill="#7FBE26" d="M33.254,38.92c0,0.166-0.033,0.32-0.098,0.464c-0.065,0.144-0.152,0.268-0.262,0.372
					s-0.239,0.188-0.393,0.248c-0.152,0.062-0.311,0.092-0.477,0.092c-0.348,0-0.641-0.115-0.875-0.346
					c-0.235-0.231-0.353-0.508-0.353-0.83c0-0.156,0.03-0.307,0.091-0.451c0.061-0.144,0.148-0.268,0.262-0.372
					s0.244-0.189,0.393-0.255c0.147-0.065,0.309-0.098,0.482-0.098c0.166,0,0.324,0.03,0.477,0.091
					c0.153,0.062,0.283,0.144,0.393,0.249c0.109,0.104,0.196,0.229,0.262,0.372C33.221,38.6,33.254,38.754,33.254,38.92z
					 M31.629,47.504c-0.371,0-0.674-0.303-0.674-0.673v-5.159c0-0.37,0.303-0.673,0.674-0.673h0.795
					c0.371,0,0.674,0.303,0.674,0.673v5.159c0,0.37-0.303,0.673-0.674,0.673H31.629z"/>
			</g>
			<g>
				<path fill="#7FBE26" d="M44.373,46.217c0,0.37-0.023,0.976-0.052,1.345c0,0-0.039,0.517-0.223,0.988
					c-0.183,0.47-0.439,0.86-0.771,1.169c-0.332,0.31-0.734,0.541-1.209,0.693s-1,0.229-1.574,0.229s-1.165-0.088-1.771-0.262
					c-0.606-0.174-0.998-0.41-0.998-0.41c-0.316-0.191-0.402-0.596-0.189-0.899l0.298-0.426c0.213-0.303,0.631-0.372,0.93-0.152
					c0,0,0.117,0.086,0.496,0.221c0.379,0.136,0.75,0.203,1.117,0.203c0.627,0,1.09-0.166,1.391-0.497s0.35-0.654,0.35-0.654
					c0.056-0.366,0.102-0.754,0.102-0.862s-0.009-0.196-0.02-0.196s-0.231,0.212-0.49,0.471c0,0,0,0-0.34,0.156
					c-0.339,0.157-0.727,0.236-1.162,0.236c-0.497,0-0.937-0.09-1.32-0.269c-0.383-0.179-0.707-0.42-0.973-0.725
					c-0.267-0.306-0.469-0.66-0.608-1.065s-0.208-0.834-0.208-1.287c0-0.452,0.068-0.884,0.208-1.293
					c0.14-0.41,0.342-0.771,0.608-1.085c0.266-0.313,0.59-0.563,0.973-0.751c0.384-0.188,0.818-0.281,1.307-0.281
					c0.409,0,0.801,0.083,1.176,0.248c0.375,0.166,0.46,0.264,0.46,0.264c0.243,0.279,0.448,0.508,0.455,0.508
					s0.013-0.188,0.013-0.418s0.303-0.418,0.674-0.418h0.678c0.371,0,0.674,0.303,0.674,0.673V46.217z M42.335,44.212
					c0-0.218-0.037-0.427-0.11-0.627c-0.074-0.201-0.182-0.377-0.32-0.53c-0.141-0.151-0.306-0.271-0.497-0.358
					c-0.192-0.087-0.409-0.131-0.653-0.131s-0.459,0.044-0.646,0.131s-0.347,0.204-0.477,0.353
					c-0.131,0.148-0.231,0.322-0.301,0.522c-0.07,0.201-0.104,0.414-0.104,0.641c0,0.218,0.034,0.427,0.104,0.627
					c0.069,0.2,0.17,0.377,0.301,0.529c0.13,0.152,0.289,0.274,0.477,0.365c0.188,0.092,0.402,0.138,0.646,0.138
					s0.464-0.046,0.66-0.138c0.195-0.091,0.361-0.211,0.496-0.358c0.135-0.148,0.24-0.322,0.314-0.523
					C42.298,44.652,42.335,44.438,42.335,44.212z"/>
			</g>
			<g>
				<path fill="#7FBE26" d="M53.697,47.504c-0.371,0-0.674-0.303-0.674-0.673v-2.207c0-0.37-0.007-0.833-0.016-1.03
					c0,0,0,0-0.03-0.166c-0.03-0.165-0.081-0.312-0.15-0.438c-0.07-0.127-0.168-0.227-0.294-0.301
					c-0.127-0.074-0.285-0.111-0.478-0.111c-0.191,0-0.358,0.037-0.503,0.111c-0.144,0.074-0.264,0.177-0.359,0.307
					c-0.096,0.131-0.168,0.281-0.215,0.451c-0.049,0.17-0.049,0.17-0.049,0.17c-0.013,0.198-0.023,0.663-0.023,1.033v2.181
					c0,0.37-0.303,0.673-0.674,0.673h-0.809c-0.371,0-0.674-0.303-0.674-0.673v-5.159c0-0.37,0.303-0.673,0.674-0.673h0.73
					c0.371,0,0.674,0.203,0.674,0.45s0.006,0.45,0.013,0.45s0.095-0.124,0.194-0.275c0,0,0,0,0.126-0.136
					c0.126-0.135,0.274-0.251,0.444-0.347s0.354-0.174,0.556-0.234c0.2-0.062,0.413-0.092,0.64-0.092
					c0.436,0,0.806,0.078,1.11,0.235c0.306,0.157,0.552,0.359,0.738,0.607c0.188,0.248,0.323,0.534,0.405,0.855
					c0.083,0.323,0.083,0.323,0.083,0.323c0.023,0.354,0.042,0.947,0.042,1.317v2.678c0,0.37-0.303,0.673-0.674,0.673H53.697z"/>
			</g>
			<g>
				<path fill="#7FBE26" d="M72.661,44.225c0,0.453-0.069,0.889-0.209,1.307c-0.139,0.418-0.342,0.787-0.607,1.104
					s-0.589,0.573-0.973,0.765s-0.819,0.287-1.307,0.287c-0.401,0-0.78-0.081-1.137-0.242c-0.357-0.16-0.37-0.174-0.37-0.174
					c-0.257-0.267-0.473-0.485-0.479-0.485s-0.013,0.303-0.013,0.673v2.508c0,0.37-0.303,0.673-0.674,0.673h-0.795
					c-0.371,0-0.674-0.303-0.674-0.673v-8.296c0-0.37,0.303-0.673,0.674-0.673h0.689c0.371,0,0.674,0.179,0.674,0.398
					s0.009,0.398,0.02,0.398c0.012,0,0.231-0.217,0.49-0.483c0,0,0.007-0.007,0.359-0.204c0.354-0.196,0.77-0.294,1.248-0.294
					c0.471,0,0.896,0.092,1.281,0.274c0.383,0.183,0.707,0.431,0.973,0.745c0.266,0.313,0.471,0.678,0.615,1.091
					C72.59,43.338,72.661,43.772,72.661,44.225z M70.584,44.225c0-0.209-0.032-0.414-0.098-0.613
					c-0.064-0.201-0.161-0.377-0.287-0.529c-0.127-0.152-0.285-0.277-0.477-0.373c-0.192-0.096-0.414-0.144-0.666-0.144
					c-0.244,0-0.463,0.048-0.654,0.144s-0.355,0.223-0.49,0.379c-0.135,0.157-0.239,0.336-0.313,0.535
					c-0.074,0.201-0.111,0.406-0.111,0.615s0.037,0.414,0.111,0.613c0.073,0.201,0.178,0.379,0.313,0.536s0.299,0.283,0.49,0.379
					s0.41,0.144,0.654,0.144c0.252,0,0.474-0.048,0.666-0.144c0.191-0.096,0.35-0.222,0.477-0.379
					c0.126-0.157,0.223-0.337,0.287-0.542C70.552,44.641,70.584,44.434,70.584,44.225z"/>
			</g>
			<g>
				<path fill="#7FBE26" d="M77.386,47.504c-0.371,0-0.674-0.303-0.674-0.673V38.3c0-0.37,0.303-0.673,0.674-0.673h0.835
					c0.371,0,0.674,0.303,0.674,0.673v8.53c0,0.37-0.303,0.673-0.674,0.673H77.386z"/>
			</g>
			<g>
				<path fill="#7FBE26" d="M83.626,42.378c-0.252-0.271-0.219-0.678,0.074-0.904c0,0,0.297-0.229,0.806-0.412
					c0.51-0.183,1.03-0.273,1.562-0.273c0.549,0,1.013,0.066,1.393,0.202c0.378,0.135,0.686,0.344,0.921,0.627
					c0.234,0.283,0.407,0.641,0.517,1.071c0.107,0.432,0.129,0.863,0.129,0.863c0.019,0.37,0.033,0.976,0.033,1.346v1.933
					c0,0.37-0.303,0.673-0.674,0.673h-0.611c-0.371,0-0.674-0.156-0.674-0.346s-0.009-0.346-0.021-0.346
					c-0.011,0-0.207,0.215-0.436,0.479c0,0,0,0-0.336,0.148c-0.335,0.148-0.698,0.222-1.09,0.222c-0.263,0-0.531-0.034-0.811-0.104
					c-0.279-0.069-0.534-0.183-0.765-0.34c-0.231-0.156-0.42-0.365-0.568-0.627c-0.147-0.262-0.222-0.584-0.222-0.967
					c0-0.471,0.129-0.85,0.385-1.137c0.258-0.288,0.588-0.51,0.993-0.666c0.405-0.157,0.856-0.262,1.353-0.314
					s0.777-0.06,0.777-0.06c0.37-0.01,0.673-0.042,0.673-0.07s-0.051-0.304-0.112-0.612c0,0,0,0-0.227-0.152
					c-0.228-0.152-0.506-0.229-0.836-0.229c-0.306,0-0.6,0.065-0.883,0.195c-0.283,0.131-0.283,0.131-0.283,0.131
					c-0.243,0.187-0.649,0.118-0.901-0.153L83.626,42.378z M87.101,44.78c0-0.061-0.062-0.111-0.138-0.111s-0.35,0.005-0.609,0.011
					c0,0,0,0-0.24,0.022c-0.239,0.021-0.452,0.063-0.641,0.124c-0.187,0.061-0.341,0.15-0.463,0.268
					c-0.123,0.117-0.184,0.272-0.184,0.464c0,0.122,0.028,0.227,0.085,0.313s0.129,0.156,0.216,0.209s0.187,0.09,0.301,0.111
					c0.112,0.021,0.222,0.032,0.327,0.032c0.435,0,0.768-0.119,0.998-0.358c0.231-0.24,0.242-0.31,0.242-0.31
					C87.053,45.19,87.101,44.841,87.101,44.78z"/>
			</g>
			<g>
				<path fill="#7FBE26" d="M98.279,47.504c-0.371,0-0.674-0.303-0.674-0.673v-2.207c0-0.37-0.007-0.833-0.015-1.03
					c0,0,0,0-0.03-0.166c-0.031-0.165-0.081-0.312-0.151-0.438c-0.069-0.127-0.168-0.227-0.293-0.301
					c-0.127-0.074-0.286-0.111-0.479-0.111c-0.191,0-0.358,0.037-0.502,0.111s-0.264,0.177-0.359,0.307
					c-0.097,0.131-0.169,0.281-0.216,0.451c-0.048,0.17-0.048,0.17-0.048,0.17c-0.014,0.198-0.024,0.663-0.024,1.033v2.181
					c0,0.37-0.303,0.673-0.674,0.673h-0.808c-0.371,0-0.674-0.303-0.674-0.673v-5.159c0-0.37,0.303-0.673,0.674-0.673h0.73
					c0.371,0,0.674,0.203,0.674,0.45s0.006,0.45,0.013,0.45s0.094-0.124,0.193-0.275c0,0,0,0,0.126-0.136
					c0.127-0.135,0.274-0.251,0.444-0.347s0.355-0.174,0.556-0.234c0.2-0.062,0.413-0.092,0.64-0.092
					c0.436,0,0.806,0.078,1.111,0.235c0.305,0.157,0.551,0.359,0.737,0.607c0.188,0.248,0.323,0.534,0.406,0.855
					c0.082,0.323,0.082,0.323,0.082,0.323c0.023,0.354,0.042,0.947,0.042,1.317v2.678c0,0.37-0.303,0.673-0.674,0.673H98.279z"/>
			</g>
			<g>
				<path fill="#7FBE26" d="M109.007,47.504c-0.371,0-0.674-0.303-0.674-0.673v-2.207c0-0.37-0.007-0.833-0.015-1.03
					c0,0,0,0-0.03-0.166c-0.031-0.165-0.081-0.312-0.15-0.438c-0.07-0.127-0.169-0.227-0.294-0.301
					c-0.126-0.074-0.285-0.111-0.478-0.111c-0.191,0-0.358,0.037-0.503,0.111c-0.144,0.074-0.263,0.177-0.359,0.307
					c-0.097,0.131-0.168,0.281-0.216,0.451s-0.048,0.17-0.048,0.17c-0.014,0.198-0.024,0.663-0.024,1.033v2.181
					c0,0.37-0.303,0.673-0.674,0.673h-0.808c-0.371,0-0.674-0.303-0.674-0.673v-5.159c0-0.37,0.303-0.673,0.674-0.673h0.73
					c0.371,0,0.674,0.203,0.674,0.45s0.006,0.45,0.013,0.45s0.094-0.124,0.193-0.275c0,0,0,0,0.127-0.136
					c0.126-0.135,0.273-0.251,0.444-0.347c0.169-0.096,0.354-0.174,0.556-0.234c0.199-0.062,0.413-0.092,0.639-0.092
					c0.437,0,0.807,0.078,1.111,0.235c0.306,0.157,0.551,0.359,0.738,0.607s0.322,0.534,0.405,0.855
					c0.083,0.323,0.083,0.323,0.083,0.323c0.023,0.354,0.042,0.947,0.042,1.317v2.678c0,0.37-0.303,0.673-0.674,0.673H109.007z"/>
			</g>
			<g>
				<path fill="#7FBE26" d="M117.113,38.92c0,0.166-0.032,0.32-0.098,0.464s-0.152,0.268-0.262,0.372s-0.239,0.188-0.392,0.248
					c-0.152,0.062-0.312,0.092-0.478,0.092c-0.348,0-0.64-0.115-0.874-0.346c-0.235-0.231-0.353-0.508-0.353-0.83
					c0-0.156,0.03-0.307,0.09-0.451c0.062-0.144,0.148-0.268,0.263-0.372c0.112-0.104,0.243-0.189,0.392-0.255
					c0.147-0.065,0.309-0.098,0.482-0.098c0.166,0,0.325,0.03,0.478,0.091c0.152,0.062,0.282,0.144,0.392,0.249
					c0.109,0.104,0.196,0.229,0.262,0.372S117.113,38.754,117.113,38.92z M115.488,47.504c-0.371,0-0.674-0.303-0.674-0.673v-5.159
					c0-0.37,0.303-0.673,0.674-0.673h0.795c0.371,0,0.674,0.303,0.674,0.673v5.159c0,0.37-0.303,0.673-0.674,0.673H115.488z"/>
			</g>
			<g>
				<path fill="#7FBE26" d="M126.28,47.504c-0.371,0-0.674-0.303-0.674-0.673v-2.207c0-0.37-0.007-0.833-0.016-1.03
					c0,0,0,0-0.03-0.166c-0.03-0.165-0.08-0.312-0.149-0.438c-0.07-0.127-0.168-0.227-0.295-0.301
					c-0.126-0.074-0.285-0.111-0.477-0.111s-0.359,0.037-0.503,0.111c-0.145,0.074-0.264,0.177-0.358,0.307
					c-0.097,0.131-0.169,0.281-0.216,0.451c-0.049,0.17-0.049,0.17-0.049,0.17c-0.013,0.198-0.023,0.663-0.023,1.033v2.181
					c0,0.37-0.303,0.673-0.674,0.673h-0.809c-0.371,0-0.674-0.303-0.674-0.673v-5.159c0-0.37,0.303-0.673,0.674-0.673h0.729
					c0.371,0,0.674,0.203,0.674,0.45s0.006,0.45,0.014,0.45s0.095-0.124,0.193-0.275c0,0,0,0,0.126-0.136
					c0.127-0.135,0.275-0.251,0.444-0.347c0.171-0.096,0.354-0.174,0.556-0.234c0.201-0.062,0.414-0.092,0.641-0.092
					c0.435,0,0.805,0.078,1.11,0.235c0.305,0.157,0.551,0.359,0.738,0.607c0.187,0.248,0.322,0.534,0.405,0.855
					c0.082,0.323,0.082,0.323,0.082,0.323c0.023,0.354,0.042,0.947,0.042,1.317v2.678c0,0.37-0.303,0.673-0.674,0.673H126.28z"/>
			</g>
			<g>
				<path fill="#7FBE26" d="M138.96,46.217c0,0.37-0.023,0.976-0.052,1.345c0,0-0.039,0.517-0.223,0.988
					c-0.183,0.47-0.439,0.86-0.771,1.169c-0.332,0.31-0.734,0.541-1.209,0.693c-0.474,0.152-1,0.229-1.573,0.229
					c-0.576,0-1.166-0.088-1.771-0.262s-0.997-0.41-0.997-0.41c-0.317-0.191-0.403-0.596-0.19-0.899l0.298-0.426
					c0.213-0.303,0.631-0.372,0.93-0.152c0,0,0.117,0.086,0.495,0.221c0.38,0.136,0.752,0.203,1.117,0.203
					c0.628,0,1.092-0.166,1.393-0.497c0.3-0.331,0.35-0.654,0.35-0.654c0.056-0.366,0.102-0.754,0.102-0.862
					s-0.009-0.196-0.02-0.196c-0.012,0-0.232,0.212-0.491,0.471c0,0,0,0-0.34,0.156c-0.339,0.157-0.728,0.236-1.162,0.236
					c-0.497,0-0.937-0.09-1.32-0.269c-0.383-0.179-0.708-0.42-0.974-0.725c-0.266-0.306-0.469-0.66-0.607-1.065
					c-0.14-0.405-0.209-0.834-0.209-1.287c0-0.452,0.069-0.884,0.209-1.293c0.139-0.41,0.342-0.771,0.607-1.085
					s0.591-0.563,0.974-0.751c0.384-0.188,0.819-0.281,1.308-0.281c0.408,0,0.8,0.083,1.175,0.248
					c0.375,0.166,0.46,0.264,0.46,0.264c0.243,0.279,0.448,0.508,0.455,0.508s0.013-0.188,0.013-0.418s0.303-0.418,0.674-0.418
					h0.678c0.371,0,0.674,0.303,0.674,0.673V46.217z M136.922,44.212c0-0.218-0.037-0.427-0.111-0.627
					c-0.074-0.201-0.181-0.377-0.32-0.53c-0.139-0.151-0.305-0.271-0.496-0.358s-0.409-0.131-0.653-0.131
					c-0.243,0-0.459,0.044-0.647,0.131c-0.187,0.087-0.346,0.204-0.477,0.353c-0.13,0.148-0.23,0.322-0.301,0.522
					c-0.069,0.201-0.104,0.414-0.104,0.641c0,0.218,0.034,0.427,0.104,0.627c0.07,0.2,0.171,0.377,0.301,0.529
					c0.131,0.152,0.29,0.274,0.477,0.365c0.188,0.092,0.404,0.138,0.647,0.138c0.244,0,0.464-0.046,0.66-0.138
					c0.196-0.091,0.36-0.211,0.497-0.358c0.134-0.148,0.238-0.322,0.313-0.523C136.885,44.652,136.922,44.438,136.922,44.212z"/>
			</g>
		</g>
	</g>
	<g>
		<g>
			<path fill="#7FBE26" d="M15.992,34.074c-0.592,0-1.077-0.485-1.077-1.078V22.745c0-0.593-0.021-1.562-0.046-2.154
				c0,0-0.008-0.17-0.113-0.749c-0.106-0.577-0.281-1.087-0.524-1.527c-0.244-0.441-0.586-0.791-1.026-1.05
				c-0.441-0.258-0.997-0.388-1.665-0.388c-0.669,0-1.255,0.13-1.757,0.388c-0.502,0.259-0.92,0.616-1.254,1.072
				s-0.586,0.98-0.752,1.573c-0.168,0.594-0.18,0.772-0.18,0.772c-0.039,0.591-0.071,1.56-0.071,2.153v10.161
				c0,0.593-0.485,1.078-1.077,1.078H1.077C0.484,34.074,0,33.589,0,32.997V12.435c0-0.593,0.484-1.078,1.077-1.078h5.098
				c0.593,0,1.077,0.485,1.077,1.078v0.992c0,0.593,0.021,1.078,0.046,1.078s0.312-0.406,0.636-0.902c0,0,0.041-0.063,0.482-0.535
				c0.439-0.471,0.957-0.874,1.551-1.209c0.593-0.334,1.238-0.607,1.938-0.82c0.699-0.213,1.443-0.32,2.235-0.32
				c1.52,0,2.812,0.274,3.877,0.821c1.064,0.548,1.922,1.255,2.577,2.121c0.653,0.867,1.124,1.863,1.413,2.987
				c0.29,1.126,0.365,2.301,0.365,2.301c0.037,0.591,0.068,1.56,0.068,2.153v11.895c0,0.593-0.484,1.078-1.077,1.078H15.992z"/>
		</g>
		<g>
			<path fill="#7FBE26" d="M34.657,4.105c0,0.578-0.114,1.117-0.342,1.619s-0.532,0.935-0.913,1.3
				c-0.38,0.365-0.836,0.654-1.367,0.866c-0.533,0.214-1.088,0.32-1.666,0.32c-1.216,0-2.234-0.403-3.056-1.209
				s-1.231-1.771-1.231-2.896c0-0.548,0.105-1.072,0.32-1.574c0.212-0.502,0.516-0.936,0.911-1.3
				c0.396-0.365,0.851-0.661,1.369-0.89C29.199,0.114,29.762,0,30.369,0c0.578,0,1.133,0.107,1.666,0.319
				c0.531,0.213,0.987,0.501,1.367,0.866c0.381,0.365,0.686,0.799,0.913,1.301C34.543,2.987,34.657,3.528,34.657,4.105z
				 M27.706,34.074c-0.593,0-1.077-0.485-1.077-1.078V12.435c0-0.593,0.484-1.078,1.077-1.078h5.326
				c0.593,0,1.077,0.485,1.077,1.078v20.562c0,0.593-0.484,1.078-1.077,1.078H27.706z"/>
		</g>
		<g>
			<path fill="#7FBE26" d="M55.161,17.886c-0.387,0.449-1.05,0.475-1.472,0.059c0,0-0.234-0.231-0.965-0.566
				c-0.729-0.334-1.476-0.502-2.235-0.502c-0.79,0-1.505,0.16-2.144,0.479c-0.639,0.32-1.186,0.746-1.642,1.277
				c-0.456,0.533-0.813,1.148-1.072,1.848s-0.388,1.445-0.388,2.235c0,0.791,0.121,1.536,0.365,2.235
				c0.242,0.699,0.6,1.315,1.071,1.848c0.472,0.531,1.034,0.95,1.688,1.254c0.653,0.305,1.392,0.456,2.212,0.456
				c0.761,0,1.514-0.144,2.26-0.433c0.743-0.289,1.006-0.529,1.006-0.529c0.438-0.4,1.103-0.352,1.478,0.106l2.786,3.397
				c0.375,0.458,0.295,1.125-0.178,1.481c0,0-1.301,0.979-2.789,1.496c-1.49,0.517-3.072,0.775-4.744,0.775
				c-1.795,0-3.47-0.273-5.025-0.821c-1.555-0.547-2.905-1.346-4.053-2.396c-1.147-1.048-2.05-2.317-2.707-3.809
				c-0.658-1.489-0.986-3.177-0.986-5.063c0-1.854,0.328-3.527,0.986-5.018c0.657-1.489,1.56-2.76,2.707-3.809
				c1.147-1.05,2.498-1.854,4.053-2.418c1.556-0.563,3.216-0.844,4.98-0.844c0.82,0,1.634,0.076,2.439,0.228
				c0.806,0.153,1.581,0.358,2.327,0.616c0.743,0.259,1.429,0.578,2.052,0.958c0.623,0.381,0.81,0.544,0.81,0.544
				c0.446,0.391,0.493,1.077,0.106,1.526L55.161,17.886z"/>
		</g>
		<g>
			<path fill="#7FBE26" d="M84.12,22.625c0,1.854-0.334,3.534-1.003,5.039c-0.669,1.506-1.582,2.783-2.737,3.832
				c-1.155,1.05-2.493,1.863-4.014,2.44c-1.521,0.577-3.147,0.867-4.88,0.867c-1.705,0-3.324-0.29-4.859-0.867
				s-2.873-1.391-4.014-2.44c-1.14-1.049-2.045-2.326-2.714-3.832c-0.669-1.505-1.003-3.185-1.003-5.039
				c0-1.855,0.334-3.527,1.003-5.018s1.574-2.752,2.714-3.787c1.141-1.033,2.479-1.824,4.014-2.371
				c1.535-0.548,3.154-0.821,4.859-0.821c1.732,0,3.358,0.273,4.88,0.821c1.521,0.547,2.858,1.338,4.014,2.371
				c1.155,1.035,2.068,2.297,2.737,3.787S84.12,20.77,84.12,22.625z M76.914,22.625c0-0.73-0.122-1.445-0.365-2.145
				c-0.244-0.699-0.594-1.314-1.05-1.848c-0.456-0.531-1.019-0.965-1.688-1.3c-0.669-0.334-1.444-0.501-2.325-0.501
				c-0.883,0-1.659,0.167-2.327,0.501c-0.67,0.335-1.225,0.769-1.665,1.3c-0.44,0.533-0.775,1.148-1.004,1.848
				s-0.342,1.414-0.342,2.145c0,0.729,0.113,1.444,0.342,2.143c0.229,0.701,0.57,1.332,1.026,1.894
				c0.456,0.563,1.019,1.011,1.688,1.347c0.668,0.334,1.443,0.501,2.326,0.501c0.881,0,1.657-0.167,2.326-0.501
				c0.669-0.336,1.232-0.783,1.688-1.347c0.456-0.562,0.799-1.192,1.026-1.894C76.8,24.069,76.914,23.354,76.914,22.625z"/>
		</g>
		<g>
			<path fill="#7FBE26" d="M102.226,16.439c-0.028,0.592-0.349,1.008-0.712,0.925c0,0,0,0-0.319-0.031
				c-0.32-0.03-0.632-0.046-0.936-0.046c-1.004,0-1.847,0.184-2.531,0.547s-1.232,0.804-1.643,1.318
				c-0.41,0.517-0.707,1.077-0.89,1.684c-0.183,0.607-0.183,0.607-0.183,0.607c-0.05,0.542-0.091,1.469-0.091,2.062v9.491
				c0,0.593-0.484,1.078-1.077,1.078h-5.326c-0.593,0-1.077-0.485-1.077-1.078V12.462c0-0.593,0.484-1.078,1.077-1.078h5.052
				c0.592,0,1.077,0.485,1.077,1.078v1.129c0,0.593,0.021,1.078,0.046,1.078s0.313-0.404,0.641-0.898c0,0,0.804-1.214,1.869-1.948
				c1.063-0.735,2.296-1.104,3.694-1.104c0.304,0,0.6,0.017,0.89,0.046c0.288,0.03,0.288,0.03,0.288,0.03
				c0.229,0.059,0.395,0.591,0.366,1.183L102.226,16.439z"/>
		</g>
		<g>
			<path fill="#7FBE26" d="M112.857,4.105c0,0.578-0.114,1.117-0.343,1.619c-0.228,0.502-0.531,0.935-0.911,1.3
				c-0.382,0.365-0.837,0.654-1.369,0.866c-0.532,0.214-1.087,0.32-1.665,0.32c-1.216,0-2.234-0.403-3.056-1.209
				s-1.231-1.771-1.231-2.896c0-0.548,0.106-1.072,0.319-1.574c0.212-0.502,0.517-0.936,0.912-1.3
				c0.395-0.365,0.851-0.661,1.368-0.89C107.398,0.114,107.961,0,108.569,0c0.578,0,1.133,0.107,1.665,0.319
				c0.532,0.213,0.987,0.501,1.369,0.866c0.38,0.365,0.684,0.799,0.911,1.301C112.743,2.987,112.857,3.528,112.857,4.105z
				 M105.906,34.074c-0.592,0-1.077-0.485-1.077-1.078V12.435c0-0.593,0.485-1.078,1.077-1.078h5.326
				c0.592,0,1.077,0.485,1.077,1.078v20.562c0,0.593-0.485,1.078-1.077,1.078H105.906z"/>
		</g>
		<g>
			<path fill="#7FBE26" d="M139.5,22.989c0,0.305,0,0.608,0,0.912c0,0.305,0,0.305,0,0.305c-0.025,0.309-0.531,0.562-1.123,0.562
				h-14.313c-0.592,0-0.979,0.475-0.859,1.055c0,0,0.033,0.162,0.353,0.679s0.73,0.966,1.232,1.345
				c0.502,0.381,1.063,0.677,1.688,0.89c0.623,0.214,1.269,0.319,1.938,0.319c1.186,0,2.189-0.22,3.01-0.661
				c0.821-0.44,1.271-0.922,1.271-0.922c0.404-0.433,1.146-0.529,1.646-0.212l3.378,2.134c0.501,0.316,0.587,0.936,0.19,1.376
				c0,0-1.75,1.943-3.498,2.779c-1.749,0.836-3.778,1.255-6.09,1.255c-1.703,0-3.314-0.267-4.835-0.798
				c-1.521-0.533-2.851-1.308-3.991-2.326c-1.141-1.02-2.037-2.273-2.69-3.765c-0.655-1.489-0.981-3.192-0.981-5.107
				c0-1.855,0.319-3.536,0.958-5.041s1.505-2.782,2.6-3.832c1.096-1.049,2.388-1.862,3.878-2.44
				c1.489-0.577,3.102-0.866,4.835-0.866c1.672,0,3.208,0.281,4.607,0.844c1.397,0.563,2.6,1.376,3.603,2.44
				c1.004,1.064,1.786,2.356,2.35,3.877C139.219,19.311,139.5,21.043,139.5,22.989z M131.535,20.115
				c0.592,0,0.996-0.478,0.897-1.063c0,0-0.193-1.142-0.938-1.993c-0.746-0.851-1.863-1.277-3.353-1.277
				c-0.73,0-1.399,0.114-2.008,0.343c-0.608,0.228-1.14,0.539-1.596,0.935s-0.821,0.859-1.096,1.392
				c-0.273,0.532-0.284,0.601-0.284,0.601c-0.095,0.585,0.313,1.063,0.905,1.063H131.535z"/>
		</g>
	</g>
</g>
</svg>
