<?xml version="1.0" encoding="utf-8"?>
<!-- Generator: Adobe Illustrator 15.0.0, SVG Export Plug-In . SVG Version: 6.00 Build 0)  -->
<!DOCTYPE svg PUBLIC "-//W3C//DTD SVG 1.1//EN" "http://www.w3.org/Graphics/SVG/1.1/DTD/svg11.dtd">
<svg version="1.1" id="レイヤー_1" xmlns="http://www.w3.org/2000/svg" xmlns:xlink="http://www.w3.org/1999/xlink" x="0px"
	 y="0px" width="311px" height="114.5px" viewBox="0 0 311 114.5" enable-background="new 0 0 311 114.5" xml:space="preserve">
<g>
	<g>
		<g>
			<g>
				<path fill="#FFFFFF" d="M14.187,107.028c-0.823,0-1.497-0.425-1.497-0.943s-0.013-0.942-0.029-0.942
					c-0.016,0-0.47,0.508-1.009,1.131c0,0-0.148,0.172-1.009,0.567c-0.862,0.396-1.776,0.595-2.744,0.595
					c-1.085,0-2.052-0.214-2.904-0.639s-1.573-0.992-2.163-1.699c-0.592-0.707-1.042-1.523-1.351-2.453s-0.464-1.896-0.464-2.903
					c0-1.005,0.159-1.972,0.478-2.89c0.32-0.92,0.774-1.728,1.365-2.425c0.59-0.696,1.307-1.249,2.148-1.655
					c0.843-0.405,1.787-0.607,2.832-0.607c1.063,0,1.964,0.202,2.701,0.607c0.734,0.406,0.734,0.406,0.734,0.406
					c0.538,0.512,0.992,0.93,1.008,0.93c0.016,0,0.029-0.674,0.029-1.496v-6.037c0-0.823,0.673-1.497,1.497-1.497h1.769
					c0.823,0,1.497,0.673,1.497,1.497v18.958c0,0.821-0.673,1.497-1.497,1.497L14.187,107.028L14.187,107.028z M12.517,99.77
					c0-0.464-0.083-0.918-0.248-1.363s-0.397-0.844-0.696-1.189c-0.302-0.35-0.664-0.629-1.089-0.843
					c-0.427-0.212-0.91-0.32-1.453-0.32c-0.563,0-1.054,0.107-1.481,0.32c-0.425,0.214-0.784,0.49-1.074,0.828
					c-0.29,0.339-0.508,0.729-0.653,1.177c-0.146,0.445-0.218,0.899-0.218,1.364s0.072,0.925,0.218,1.38
					c0.146,0.455,0.363,0.855,0.653,1.204c0.29,0.35,0.648,0.63,1.074,0.843c0.427,0.212,0.92,0.319,1.481,0.319
					c0.542,0,1.026-0.107,1.453-0.319c0.425-0.213,0.788-0.494,1.089-0.843c0.299-0.349,0.531-0.745,0.696-1.189
					S12.517,100.232,12.517,99.77z"/>
			</g>
			<g>
				<path fill="#FFFFFF" d="M41.146,99.973c0,0.194,0,0.389,0,0.58c0,0.195,0,0.195,0,0.195c-0.016,0.196-0.703,0.357-1.526,0.357
					h-7.49c-0.823,0-1.424,0.349-1.336,0.773c0,0,0,0,0.204,0.329c0.204,0.33,0.465,0.615,0.784,0.856
					c0.319,0.242,0.678,0.432,1.075,0.565c0.397,0.136,0.808,0.204,1.233,0.204c0.755,0,1.395-0.141,1.917-0.421
					c0.523-0.28,0.523-0.28,0.523-0.28c0.415-0.445,1.323-0.449,2.019-0.011l0.781,0.493c0.696,0.438,0.814,1.299,0.264,1.911
					c0,0-0.572,0.636-1.685,1.168c-1.114,0.532-2.406,0.798-3.877,0.798c-1.084,0-2.11-0.169-3.078-0.508
					c-0.968-0.338-1.815-0.831-2.541-1.48c-0.726-0.648-1.296-1.445-1.713-2.395c-0.417-0.95-0.624-2.033-0.624-3.252
					c0-1.183,0.203-2.25,0.61-3.209c0.406-0.959,0.958-1.771,1.655-2.438c0.696-0.668,1.52-1.187,2.468-1.553
					c0.947-0.367,1.975-0.552,3.078-0.552c1.063,0,2.042,0.179,2.932,0.534c0.891,0.358,1.655,0.878,2.294,1.557
					c0.638,0.678,1.137,1.5,1.495,2.468C40.967,97.631,41.146,98.734,41.146,99.973z M35.265,98.143c0.823,0,1.39-0.631,1.259-1.4
					c0,0,0,0-0.475-0.542c-0.474-0.542-1.186-0.813-2.134-0.813c-0.464,0-0.891,0.074-1.277,0.219
					c-0.388,0.146-0.726,0.345-1.017,0.597c-0.29,0.251-0.522,0.548-0.696,0.885c-0.174,0.339-0.174,0.339-0.174,0.339
					c-0.064,0.396,0.556,0.721,1.379,0.721h3.135V98.143z"/>
			</g>
			<g>
				<path fill="#FFFFFF" d="M59.608,95.762c-0.573,0.592-1.42,0.771-1.883,0.397c0,0,0,0-0.522-0.251
					c-0.523-0.251-1.075-0.378-1.655-0.378c-0.446,0-0.857,0.086-1.235,0.262c-0.378,0.174-0.566,0.476-0.566,0.899
					c0,0.405,0.208,0.696,0.624,0.871s1.089,0.367,2.018,0.58c0.542,0.116,1.089,0.28,1.641,0.493
					c0.551,0.216,1.049,0.494,1.495,0.845c0.445,0.348,0.803,0.772,1.074,1.275c0.272,0.504,0.407,1.104,0.407,1.8
					c0,0.91-0.185,1.682-0.552,2.311c-0.369,0.629-0.847,1.137-1.437,1.521c-0.592,0.39-1.254,0.671-1.989,0.845
					c-0.736,0.174-1.472,0.261-2.208,0.261c-1.181,0-2.337-0.188-3.47-0.566c-1.132-0.378-1.639-0.764-1.639-0.764
					c-0.655-0.498-0.728-1.396-0.162-1.992l0.611-0.644c0.566-0.599,1.457-0.703,1.979-0.234c0,0,0,0,0.62,0.311
					c0.619,0.31,1.277,0.465,1.975,0.465c0.387,0,0.77-0.092,1.147-0.276c0.378-0.185,0.566-0.508,0.566-0.973
					c0-0.444-0.232-0.773-0.697-0.987c-0.464-0.212-1.189-0.436-2.177-0.667c-0.504-0.116-1.007-0.271-1.511-0.464
					c-0.502-0.193-0.954-0.455-1.35-0.784c-0.397-0.33-0.722-0.735-0.973-1.221c-0.251-0.483-0.377-1.063-0.377-1.741
					c0-0.872,0.184-1.613,0.552-2.223c0.367-0.609,0.841-1.106,1.423-1.494c0.581-0.389,1.224-0.674,1.931-0.856
					s1.409-0.274,2.105-0.274c1.084,0,2.145,0.168,3.18,0.508c1.035,0.339,1.428,0.631,1.428,0.631
					c0.66,0.491,0.732,1.377,0.159,1.969L59.608,95.762z"/>
			</g>
			<g>
				<path fill="#FFFFFF" d="M74.887,87.951c0,0.369-0.074,0.711-0.218,1.031c-0.146,0.317-0.339,0.595-0.582,0.826
					c-0.242,0.231-0.532,0.418-0.871,0.553c-0.339,0.135-0.692,0.203-1.06,0.203c-0.774,0-1.423-0.256-1.945-0.771
					c-0.523-0.513-0.783-1.127-0.783-1.844c0-0.349,0.067-0.683,0.202-1.001c0.135-0.319,0.329-0.598,0.581-0.828
					c0.251-0.232,0.542-0.421,0.872-0.565c0.329-0.146,0.687-0.218,1.074-0.218c0.367,0,0.721,0.067,1.06,0.203
					c0.339,0.137,0.629,0.319,0.871,0.552c0.242,0.233,0.436,0.511,0.582,0.827C74.813,87.24,74.887,87.584,74.887,87.951z
					 M71.273,107.028c-0.823,0-1.497-0.673-1.497-1.497V94.064c0-0.823,0.673-1.498,1.497-1.498h1.768
					c0.823,0,1.497,0.674,1.497,1.498v11.467c0,0.822-0.673,1.497-1.497,1.497H71.273z"/>
			</g>
			<g>
				<path fill="#FFFFFF" d="M99.597,104.167c0,0.823-0.052,2.168-0.115,2.989c0,0-0.089,1.148-0.496,2.195
					c-0.406,1.045-0.977,1.91-1.713,2.599c-0.736,0.687-1.63,1.2-2.686,1.539c-1.054,0.339-2.221,0.509-3.498,0.509
					c-1.277,0-2.589-0.194-3.935-0.581c-1.346-0.387-2.216-0.911-2.216-0.911c-0.705-0.425-0.896-1.324-0.423-1.998l0.663-0.945
					c0.473-0.675,1.401-0.826,2.064-0.34c0,0,0.261,0.192,1.103,0.493c0.842,0.3,1.669,0.45,2.482,0.45
					c1.394,0,2.424-0.368,3.092-1.104c0.667-0.736,0.777-1.453,0.777-1.453c0.124-0.814,0.226-1.676,0.226-1.915
					c0-0.24-0.02-0.438-0.044-0.438s-0.514,0.472-1.089,1.045c0,0,0,0-0.755,0.349c-0.754,0.349-1.616,0.522-2.584,0.522
					c-1.103,0-2.08-0.198-2.932-0.596s-1.572-0.937-2.163-1.611c-0.592-0.678-1.042-1.467-1.351-2.366s-0.464-1.854-0.464-2.86
					c0-1.005,0.155-1.964,0.464-2.875c0.31-0.91,0.759-1.714,1.351-2.41c0.59-0.696,1.311-1.253,2.163-1.669
					c0.852-0.417,1.819-0.624,2.904-0.624c0.908,0,1.78,0.184,2.612,0.552c0.833,0.367,1.021,0.584,1.021,0.584
					c0.541,0.621,0.996,1.128,1.012,1.128s0.029-0.418,0.029-0.93c0-0.511,0.673-0.929,1.497-0.929h1.508
					c0.823,0,1.497,0.673,1.497,1.496L99.597,104.167L99.597,104.167z M95.066,99.711c0-0.482-0.083-0.949-0.246-1.395
					c-0.165-0.445-0.402-0.838-0.711-1.178c-0.311-0.337-0.678-0.604-1.104-0.798c-0.427-0.192-0.91-0.292-1.453-0.292
					c-0.541,0-1.021,0.1-1.437,0.292c-0.416,0.194-0.77,0.455-1.06,0.784c-0.29,0.33-0.513,0.717-0.667,1.161
					c-0.156,0.444-0.232,0.92-0.232,1.423c0,0.484,0.076,0.948,0.232,1.395c0.154,0.444,0.377,0.838,0.667,1.177
					s0.643,0.608,1.06,0.812c0.417,0.204,0.896,0.307,1.437,0.307c0.543,0,1.031-0.103,1.467-0.307
					c0.436-0.202,0.803-0.469,1.104-0.798s0.532-0.716,0.697-1.161C94.984,100.689,95.066,100.215,95.066,99.711z"/>
			</g>
			<g>
				<path fill="#FFFFFF" d="M120.314,107.028c-0.823,0-1.497-0.673-1.497-1.497v-4.905c0-0.823-0.015-1.853-0.034-2.289
					c0,0,0,0-0.067-0.369c-0.068-0.368-0.179-0.692-0.334-0.972c-0.156-0.281-0.374-0.504-0.653-0.668
					c-0.281-0.164-0.634-0.247-1.061-0.247c-0.426,0-0.798,0.083-1.118,0.247c-0.32,0.165-0.585,0.393-0.798,0.683
					c-0.214,0.29-0.374,0.624-0.479,1.001c-0.107,0.377-0.107,0.377-0.107,0.377c-0.029,0.439-0.053,1.473-0.053,2.295v4.848
					c0,0.822-0.673,1.497-1.497,1.497h-1.798c-0.823,0-1.497-0.675-1.497-1.497V94.064c0-0.823,0.673-1.498,1.497-1.498h1.624
					c0.823,0,1.497,0.451,1.497,1.002s0.013,1.002,0.029,1.002c0.016,0,0.21-0.276,0.43-0.614c0,0,0,0,0.281-0.3
					c0.281-0.301,0.61-0.557,0.987-0.771c0.378-0.212,0.789-0.387,1.235-0.521c0.445-0.135,0.919-0.202,1.422-0.202
					c0.968,0,1.79,0.174,2.468,0.522c0.678,0.348,1.225,0.799,1.641,1.351c0.417,0.552,0.717,1.186,0.901,1.901
					c0.183,0.717,0.183,0.717,0.183,0.717c0.051,0.787,0.093,2.104,0.093,2.928v5.951c0,0.822-0.673,1.497-1.497,1.497H120.314z"/>
			</g>
			<g>
				<path fill="#FFFFFF" d="M162.459,99.74c0,1.008-0.154,1.975-0.464,2.904c-0.31,0.929-0.761,1.748-1.353,2.452
					c-0.591,0.707-1.311,1.273-2.16,1.699c-0.854,0.425-1.82,0.64-2.904,0.64c-0.891,0-1.732-0.181-2.526-0.537
					c-0.794-0.357-0.822-0.389-0.822-0.389c-0.57-0.593-1.049-1.079-1.065-1.079s-0.029,0.675-0.029,1.497v5.573
					c0,0.823-0.673,1.497-1.497,1.497h-1.769c-0.823,0-1.497-0.673-1.497-1.497V94.064c0-0.823,0.673-1.498,1.497-1.498h1.536
					c0.823,0,1.497,0.397,1.497,0.886c0,0.487,0.02,0.886,0.044,0.886s0.514-0.482,1.087-1.072c0,0,0.016-0.017,0.8-0.451
					c0.785-0.436,1.709-0.651,2.773-0.651c1.045,0,1.993,0.202,2.845,0.608c0.852,0.405,1.571,0.957,2.162,1.654
					s1.047,1.505,1.366,2.424C162.299,97.77,162.459,98.734,162.459,99.74z M157.843,99.74c0-0.465-0.071-0.919-0.218-1.364
					c-0.145-0.446-0.357-0.838-0.639-1.177c-0.28-0.338-0.633-0.614-1.061-0.828c-0.427-0.212-0.92-0.32-1.481-0.32
					c-0.542,0-1.027,0.107-1.453,0.32c-0.425,0.214-0.789,0.494-1.089,0.843c-0.3,0.349-0.532,0.745-0.696,1.189
					c-0.165,0.446-0.248,0.899-0.248,1.364s0.083,0.92,0.248,1.364c0.164,0.445,0.396,0.843,0.696,1.189
					c0.3,0.35,0.664,0.63,1.089,0.843c0.425,0.212,0.91,0.318,1.453,0.318c0.561,0,1.054-0.106,1.481-0.318
					c0.426-0.213,0.778-0.494,1.061-0.843c0.281-0.349,0.494-0.749,0.639-1.204C157.771,100.665,157.843,100.205,157.843,99.74z"/>
			</g>
			<g>
				<path fill="#FFFFFF" d="M172.957,107.028c-0.822,0-1.496-0.673-1.496-1.497V86.574c0-0.823,0.674-1.497,1.496-1.497h1.855
					c0.821,0,1.496,0.673,1.496,1.497v18.958c0,0.823-0.675,1.497-1.496,1.497L172.957,107.028L172.957,107.028z"/>
			</g>
			<g>
				<path fill="#FFFFFF" d="M186.824,95.637c-0.563-0.602-0.487-1.505,0.165-2.008c0,0,0.659-0.509,1.792-0.915
					c1.132-0.407,2.289-0.61,3.47-0.61c1.219,0,2.25,0.149,3.093,0.45c0.842,0.3,1.523,0.767,2.047,1.396
					c0.521,0.629,0.905,1.423,1.147,2.381c0.239,0.958,0.287,1.917,0.287,1.917c0.041,0.822,0.073,2.168,0.073,2.991v4.295
					c0,0.822-0.674,1.497-1.496,1.497h-1.361c-0.822,0-1.496-0.347-1.496-0.771c0-0.424-0.02-0.77-0.044-0.77
					s-0.46,0.479-0.969,1.063c0,0,0,0-0.745,0.329c-0.745,0.33-1.553,0.494-2.424,0.494c-0.582,0-1.182-0.077-1.803-0.231
					c-0.617-0.154-1.187-0.405-1.697-0.756c-0.514-0.348-0.934-0.812-1.264-1.394c-0.328-0.581-0.492-1.296-0.492-2.148
					c0-1.045,0.285-1.887,0.854-2.524c0.572-0.639,1.309-1.133,2.207-1.481c0.898-0.348,1.9-0.58,3.006-0.696
					c1.105-0.115,1.729-0.134,1.729-0.134c0.822-0.021,1.496-0.093,1.496-0.157c0-0.063-0.112-0.676-0.25-1.358c0,0,0,0-0.504-0.339
					c-0.506-0.337-1.123-0.51-1.857-0.51c-0.68,0-1.333,0.146-1.962,0.438c-0.63,0.29-0.63,0.29-0.63,0.29
					c-0.539,0.416-1.44,0.263-2.002-0.339L186.824,95.637z M194.545,100.975c0-0.137-0.138-0.248-0.306-0.248
					c-0.169,0-0.777,0.013-1.354,0.024c0,0,0,0-0.533,0.049c-0.531,0.048-1.006,0.142-1.423,0.276
					c-0.415,0.135-0.759,0.334-1.028,0.596c-0.271,0.26-0.406,0.604-0.406,1.03c0,0.272,0.063,0.504,0.188,0.696
					s0.285,0.349,0.479,0.465c0.192,0.117,0.415,0.199,0.668,0.248c0.25,0.049,0.491,0.072,0.728,0.072
					c0.967,0,1.707-0.268,2.221-0.8c0.513-0.53,0.537-0.686,0.537-0.686C194.439,101.886,194.545,101.109,194.545,100.975z"/>
			</g>
			<g>
				<path fill="#FFFFFF" d="M219.386,107.028c-0.821,0-1.495-0.673-1.495-1.497v-4.905c0-0.823-0.016-1.853-0.033-2.289
					c0,0,0,0-0.066-0.369c-0.068-0.368-0.182-0.692-0.335-0.972c-0.154-0.281-0.374-0.504-0.651-0.668
					c-0.279-0.164-0.635-0.247-1.063-0.247s-0.799,0.083-1.116,0.247c-0.319,0.165-0.585,0.393-0.8,0.683s-0.373,0.624-0.479,1.001
					c-0.104,0.377-0.104,0.377-0.104,0.377c-0.029,0.439-0.054,1.473-0.054,2.295v4.848c0,0.822-0.674,1.497-1.496,1.497h-1.799
					c-0.822,0-1.496-0.675-1.496-1.497V94.064c0-0.823,0.674-1.498,1.496-1.498h1.625c0.821,0,1.496,0.451,1.496,1.002
					s0.014,1.002,0.027,1.002s0.209-0.276,0.432-0.614c0,0,0,0,0.28-0.3c0.28-0.301,0.606-0.557,0.987-0.771
					c0.376-0.212,0.788-0.387,1.232-0.521c0.443-0.135,0.918-0.202,1.42-0.202c0.972,0,1.793,0.174,2.472,0.522
					s1.225,0.799,1.64,1.351c0.418,0.552,0.719,1.186,0.902,1.901c0.183,0.717,0.183,0.717,0.183,0.717
					c0.052,0.787,0.095,2.104,0.095,2.928v5.951c0,0.822-0.676,1.497-1.496,1.497H219.386z"/>
			</g>
			<g>
				<path fill="#FFFFFF" d="M243.227,107.028c-0.824,0-1.496-0.673-1.496-1.497v-4.905c0-0.823-0.016-1.853-0.032-2.289
					c0,0,0,0-0.067-0.369c-0.068-0.368-0.18-0.692-0.335-0.972c-0.153-0.281-0.374-0.504-0.651-0.668
					c-0.279-0.164-0.635-0.247-1.063-0.247c-0.426,0-0.797,0.083-1.116,0.247c-0.319,0.165-0.585,0.393-0.8,0.683
					c-0.214,0.29-0.373,0.624-0.479,1.001s-0.105,0.377-0.105,0.377c-0.029,0.439-0.055,1.473-0.055,2.295v4.848
					c0,0.822-0.674,1.497-1.496,1.497h-1.797c-0.823,0-1.496-0.675-1.496-1.497V94.064c0-0.823,0.673-1.498,1.496-1.498h1.625
					c0.822,0,1.496,0.451,1.496,1.002s0.013,1.002,0.026,1.002c0.017,0,0.209-0.276,0.433-0.614c0,0,0,0,0.278-0.3
					c0.281-0.301,0.609-0.557,0.988-0.771c0.376-0.212,0.788-0.387,1.233-0.521c0.442-0.135,0.918-0.202,1.42-0.202
					c0.971,0,1.791,0.174,2.471,0.522c0.679,0.348,1.225,0.799,1.641,1.351c0.418,0.552,0.717,1.186,0.901,1.901
					c0.183,0.717,0.183,0.717,0.183,0.717c0.053,0.787,0.094,2.104,0.094,2.928v5.951c0,0.822-0.674,1.497-1.496,1.497H243.227z"/>
			</g>
			<g>
				<path fill="#FFFFFF" d="M261.241,87.951c0,0.369-0.072,0.711-0.218,1.031c-0.146,0.317-0.34,0.595-0.582,0.826
					c-0.241,0.231-0.53,0.418-0.871,0.553c-0.338,0.135-0.69,0.203-1.061,0.203c-0.771,0-1.424-0.256-1.943-0.771
					c-0.521-0.513-0.782-1.127-0.782-1.844c0-0.349,0.067-0.683,0.2-1.001c0.138-0.32,0.33-0.598,0.582-0.828
					c0.25-0.232,0.543-0.421,0.873-0.565c0.326-0.146,0.686-0.218,1.07-0.218c0.368,0,0.723,0.067,1.061,0.203
					c0.341,0.137,0.63,0.319,0.871,0.552c0.242,0.233,0.437,0.511,0.582,0.827C261.169,87.24,261.241,87.584,261.241,87.951z
					 M257.628,107.028c-0.823,0-1.496-0.673-1.496-1.497V94.064c0-0.823,0.673-1.498,1.496-1.498h1.771
					c0.822,0,1.496,0.674,1.496,1.498v11.467c0,0.822-0.674,1.497-1.496,1.497H257.628z"/>
			</g>
			<g>
				<path fill="#FFFFFF" d="M281.609,107.028c-0.822,0-1.496-0.673-1.496-1.497v-4.905c0-0.823-0.016-1.853-0.033-2.289
					c0,0,0,0-0.066-0.369c-0.065-0.368-0.179-0.692-0.332-0.972c-0.158-0.281-0.375-0.504-0.656-0.668
					c-0.278-0.164-0.633-0.247-1.059-0.247s-0.8,0.083-1.119,0.247c-0.318,0.165-0.584,0.393-0.797,0.683
					c-0.214,0.29-0.373,0.624-0.479,1.001c-0.108,0.377-0.108,0.377-0.108,0.377c-0.028,0.439-0.051,1.473-0.051,2.295v4.848
					c0,0.822-0.674,1.497-1.496,1.497h-1.801c-0.822,0-1.496-0.675-1.496-1.497V94.064c0-0.823,0.674-1.498,1.496-1.498h1.625
					c0.821,0,1.496,0.451,1.496,1.002s0.014,1.002,0.028,1.002c0.018,0,0.211-0.276,0.431-0.614c0,0,0,0,0.28-0.3
					c0.279-0.301,0.609-0.557,0.986-0.771c0.379-0.212,0.788-0.387,1.234-0.521c0.445-0.135,0.92-0.202,1.423-0.202
					c0.967,0,1.789,0.174,2.467,0.522c0.679,0.348,1.226,0.799,1.644,1.351c0.416,0.552,0.718,1.186,0.898,1.901
					c0.186,0.717,0.186,0.717,0.186,0.717c0.051,0.787,0.093,2.104,0.093,2.928v5.951c0,0.822-0.675,1.497-1.496,1.497H281.609z"/>
			</g>
			<g>
				<path fill="#FFFFFF" d="M309.79,104.167c0,0.823-0.052,2.168-0.115,2.989c0,0-0.089,1.148-0.496,2.195
					c-0.402,1.045-0.978,1.91-1.712,2.599c-0.735,0.687-1.632,1.2-2.686,1.539c-1.057,0.339-2.225,0.509-3.498,0.509
					c-1.279,0-2.591-0.194-3.938-0.581s-2.217-0.911-2.217-0.911c-0.705-0.425-0.896-1.324-0.423-1.998l0.663-0.945
					c0.473-0.675,1.4-0.826,2.063-0.34c0,0,0.264,0.192,1.104,0.493c0.844,0.3,1.671,0.45,2.48,0.45
					c1.396,0,2.428-0.368,3.096-1.104c0.668-0.736,0.775-1.453,0.775-1.453c0.124-0.814,0.228-1.676,0.228-1.915
					c0-0.24-0.021-0.438-0.044-0.438c-0.024,0-0.517,0.472-1.092,1.045c0,0,0,0-0.756,0.349c-0.753,0.349-1.614,0.522-2.583,0.522
					c-1.104,0-2.079-0.198-2.934-0.596c-0.851-0.397-1.572-0.937-2.163-1.611c-0.59-0.678-1.041-1.467-1.352-2.366
					s-0.463-1.854-0.463-2.86c0-1.005,0.152-1.964,0.463-2.875c0.311-0.91,0.762-1.714,1.352-2.41
					c0.591-0.696,1.313-1.253,2.163-1.669c0.854-0.417,1.82-0.624,2.905-0.624c0.905,0,1.776,0.184,2.609,0.552
					c0.833,0.367,1.022,0.585,1.022,0.585c0.541,0.62,0.996,1.128,1.012,1.128s0.028-0.418,0.028-0.93
					c0-0.511,0.674-0.93,1.496-0.93h1.509c0.823,0,1.496,0.674,1.496,1.498v10.103H309.79z M305.261,99.711
					c0-0.482-0.083-0.949-0.248-1.395c-0.165-0.446-0.4-0.838-0.711-1.178c-0.31-0.337-0.679-0.604-1.104-0.798
					c-0.427-0.192-0.91-0.292-1.451-0.292c-0.542,0-1.021,0.1-1.438,0.292c-0.414,0.193-0.769,0.455-1.06,0.784
					c-0.289,0.33-0.513,0.717-0.668,1.161c-0.154,0.444-0.231,0.92-0.231,1.423c0,0.484,0.077,0.948,0.231,1.395
					c0.155,0.444,0.379,0.838,0.668,1.177c0.291,0.339,0.646,0.608,1.06,0.812c0.418,0.204,0.896,0.307,1.438,0.307
					c0.541,0,1.031-0.103,1.467-0.307c0.438-0.202,0.802-0.469,1.104-0.798c0.3-0.329,0.529-0.716,0.694-1.161
					S305.261,100.215,305.261,99.711z"/>
			</g>
		</g>
	</g>
	<g>
		<g>
			<path fill="#FFFFFF" d="M36.528,77.182c-1.317,0-2.395-1.078-2.395-2.395V52.006c0-1.317-0.046-3.471-0.103-4.787
				c0,0-0.016-0.378-0.25-1.664c-0.238-1.283-0.627-2.415-1.167-3.395c-0.543-0.979-1.302-1.756-2.282-2.331
				c-0.98-0.574-2.214-0.862-3.699-0.862c-1.488,0-2.789,0.289-3.904,0.862c-1.115,0.575-2.044,1.368-2.787,2.381
				c-0.744,1.014-1.301,2.179-1.673,3.498c-0.371,1.317-0.397,1.715-0.397,1.715c-0.087,1.314-0.158,3.467-0.158,4.784v22.58
				c0,1.316-1.078,2.395-2.395,2.395H3.383c-1.317,0-2.395-1.078-2.395-2.395v-45.69c0-1.315,1.078-2.395,2.395-2.395H14.71
				c1.317,0,2.395,1.078,2.395,2.395v2.205c0,1.317,0.046,2.396,0.103,2.396c0.056,0,0.691-0.902,1.412-2.005
				c0,0,0.091-0.14,1.073-1.188c0.977-1.047,2.128-1.942,3.445-2.687c1.318-0.742,2.753-1.351,4.309-1.824
				c1.554-0.473,3.207-0.71,4.966-0.71c3.379,0,6.25,0.609,8.615,1.825c2.366,1.217,4.273,2.788,5.729,4.714
				c1.452,1.926,2.498,4.14,3.141,6.64c0.644,2.501,0.811,5.111,0.811,5.111c0.084,1.313,0.153,3.467,0.153,4.784v26.431
				c0,1.316-1.078,2.396-2.395,2.396H36.528V77.182z"/>
		</g>
		<g>
			<path fill="#FFFFFF" d="M78.005,10.585c0,1.285-0.254,2.483-0.76,3.598c-0.507,1.116-1.183,2.078-2.028,2.889
				c-0.845,0.811-1.857,1.454-3.041,1.926c-1.183,0.473-2.417,0.709-3.701,0.709c-2.702,0-4.966-0.895-6.791-2.686
				c-1.825-1.79-2.735-3.936-2.735-6.437c0-1.217,0.234-2.382,0.709-3.498c0.472-1.114,1.148-2.078,2.026-2.889
				c0.878-0.813,1.891-1.469,3.042-1.979c1.148-0.506,2.397-0.76,3.749-0.76c1.284,0,2.518,0.238,3.701,0.709
				c1.183,0.474,2.196,1.114,3.041,1.926c0.845,0.813,1.521,1.773,2.028,2.889C77.751,8.102,78.005,9.303,78.005,10.585z
				 M62.559,77.182c-1.317,0-2.395-1.078-2.395-2.395v-45.69c0-1.315,1.078-2.395,2.395-2.395h11.834
				c1.317,0,2.395,1.078,2.395,2.395v45.69c0,1.316-1.078,2.395-2.395,2.395H62.559z"/>
		</g>
		<g>
			<path fill="#FFFFFF" d="M123.571,41.209c-0.861,0.997-2.333,1.056-3.271,0.132c0,0-0.522-0.515-2.145-1.259
				c-1.622-0.743-3.28-1.115-4.967-1.115c-1.757,0-3.344,0.354-4.763,1.064s-2.636,1.657-3.649,2.839
				c-1.013,1.183-1.808,2.551-2.382,4.105c-0.574,1.554-0.861,3.21-0.861,4.966c0,1.759,0.269,3.414,0.81,4.968
				c0.54,1.556,1.335,2.923,2.382,4.104c1.048,1.183,2.296,2.111,3.75,2.786c1.452,0.679,3.092,1.017,4.917,1.017
				c1.689,0,3.361-0.32,5.019-0.963c1.653-0.644,2.235-1.175,2.235-1.175c0.972-0.888,2.451-0.78,3.286,0.237l6.189,7.549
				c0.835,1.02,0.657,2.5-0.395,3.292c0,0-2.888,2.177-6.198,3.324c-3.312,1.147-6.827,1.723-10.542,1.723
				c-3.988,0-7.709-0.605-11.166-1.823c-3.455-1.218-6.458-2.989-9.006-5.322c-2.55-2.33-4.555-5.151-6.017-8.463
				s-2.193-7.063-2.193-11.252c0-4.121,0.731-7.837,2.193-11.149c1.461-3.311,3.466-6.132,6.017-8.463
				c2.549-2.332,5.552-4.122,9.006-5.373c3.457-1.25,7.146-1.875,11.065-1.875c1.825,0,3.631,0.169,5.423,0.507
				c1.79,0.339,3.512,0.795,5.17,1.369c1.653,0.575,3.174,1.284,4.56,2.128c1.384,0.847,1.799,1.21,1.799,1.21
				c0.99,0.868,1.096,2.394,0.235,3.39L123.571,41.209z"/>
		</g>
		<g>
			<path fill="#FFFFFF" d="M187.923,51.74c0,4.121-0.741,7.854-2.229,11.199c-1.484,3.346-3.516,6.184-6.082,8.517
				c-2.565,2.331-5.538,4.139-8.918,5.421c-3.381,1.284-6.994,1.927-10.848,1.927c-3.785,0-7.384-0.644-10.796-1.927
				c-3.412-1.282-6.385-3.09-8.919-5.421c-2.534-2.333-4.547-5.171-6.032-8.517c-1.488-3.346-2.23-7.078-2.23-11.199
				c0-4.122,0.743-7.839,2.23-11.151c1.485-3.309,3.498-6.115,6.032-8.413c2.534-2.296,5.507-4.054,8.919-5.271
				c3.412-1.217,7.011-1.825,10.796-1.825c3.854,0,7.467,0.608,10.848,1.825c3.38,1.216,6.353,2.974,8.918,5.271
				c2.566,2.298,4.598,5.104,6.082,8.413C187.182,43.901,187.923,47.618,187.923,51.74z M171.908,51.74
				c0-1.624-0.271-3.21-0.811-4.765c-0.543-1.554-1.32-2.923-2.334-4.105c-1.014-1.182-2.264-2.145-3.75-2.889
				c-1.486-0.742-3.209-1.115-5.17-1.115s-3.685,0.373-5.17,1.115c-1.488,0.744-2.721,1.708-3.699,2.889
				c-0.98,1.183-1.724,2.551-2.23,4.105c-0.508,1.554-0.76,3.141-0.76,4.765c0,1.62,0.252,3.21,0.76,4.763
				c0.507,1.556,1.267,2.958,2.28,4.207c1.013,1.252,2.264,2.248,3.751,2.991c1.485,0.743,3.208,1.115,5.169,1.115
				c1.957,0,3.682-0.373,5.168-1.115c1.486-0.744,2.738-1.739,3.752-2.991c1.014-1.249,1.771-2.651,2.279-4.207
				C171.655,54.951,171.908,53.36,171.908,51.74z"/>
		</g>
		<g>
			<path fill="#FFFFFF" d="M228.158,37.996c-0.063,1.315-0.776,2.24-1.584,2.054c0,0,0,0-0.709-0.069
				c-0.711-0.067-1.404-0.101-2.079-0.101c-2.229,0-4.104,0.406-5.626,1.213c-1.521,0.811-2.736,1.787-3.649,2.932
				c-0.911,1.146-1.569,2.393-1.977,3.741c-0.405,1.348-0.405,1.348-0.405,1.348c-0.109,1.203-0.201,3.265-0.201,4.582v21.092
				c0,1.317-1.076,2.396-2.395,2.396h-11.836c-1.317,0-2.396-1.078-2.396-2.396v-45.63c0-1.317,1.077-2.396,2.396-2.396h11.226
				c1.317,0,2.396,1.078,2.396,2.396v2.509c0,1.317,0.047,2.395,0.104,2.395s0.696-0.898,1.423-1.997c0,0,1.785-2.698,4.153-4.33
				c2.361-1.633,5.102-2.451,8.209-2.451c0.675,0,1.333,0.036,1.979,0.102c0.642,0.069,0.642,0.069,0.642,0.069
				c0.511,0.13,0.877,1.312,0.813,2.627L228.158,37.996z"/>
		</g>
		<g>
			<path fill="#FFFFFF" d="M251.783,10.585c0,1.285-0.254,2.483-0.762,3.598c-0.506,1.116-1.184,2.078-2.026,2.889
				c-0.847,0.811-1.858,1.454-3.042,1.926c-1.182,0.473-2.415,0.709-3.699,0.709c-2.702,0-4.966-0.895-6.79-2.686
				c-1.825-1.79-2.737-3.936-2.737-6.437c0-1.217,0.236-2.382,0.709-3.498c0.475-1.114,1.148-2.078,2.028-2.889
				c0.878-0.813,1.892-1.469,3.04-1.979c1.148-0.506,2.396-0.76,3.75-0.76c1.284,0,2.52,0.238,3.699,0.709
				c1.184,0.474,2.195,1.114,3.042,1.926c0.845,0.813,1.521,1.773,2.026,2.889C251.529,8.102,251.783,9.303,251.783,10.585z
				 M236.337,77.182c-1.317,0-2.396-1.078-2.396-2.395v-45.69c0-1.315,1.078-2.395,2.396-2.395h11.835
				c1.317,0,2.395,1.078,2.395,2.395v45.69c0,1.316-1.075,2.395-2.395,2.395H236.337z"/>
		</g>
		<g>
			<path fill="#FFFFFF" d="M310.989,52.55c0,0.676,0,1.354,0,2.028c0,0.676,0,0.676,0,0.676c-0.059,0.687-1.182,1.249-2.497,1.249
				h-31.805c-1.316,0-2.178,1.055-1.91,2.345c0,0,0.074,0.358,0.783,1.508c0.711,1.149,1.623,2.146,2.737,2.989
				c1.115,0.847,2.364,1.505,3.75,1.978c1.386,0.475,2.819,0.709,4.31,0.709c2.636,0,4.865-0.488,6.688-1.469
				c1.825-0.979,2.826-2.052,2.826-2.052c0.896-0.962,2.545-1.174,3.658-0.471l7.506,4.741c1.113,0.703,1.304,2.08,0.422,3.058
				c0,0-3.888,4.318-7.771,6.176c-3.888,1.857-8.396,2.788-13.533,2.788c-3.784,0-7.365-0.592-10.744-1.771
				c-3.379-1.185-6.335-2.905-8.87-5.169c-2.533-2.266-4.524-5.054-5.979-8.365s-2.182-7.094-2.182-11.351
				c0-4.122,0.709-7.857,2.13-11.202c1.419-3.347,3.345-6.185,5.777-8.517c2.434-2.332,5.305-4.138,8.616-5.423
				c3.311-1.283,6.894-1.926,10.744-1.926c3.715,0,7.129,0.625,10.237,1.875c3.106,1.251,5.777,3.058,8.006,5.423
				c2.23,2.367,3.972,5.237,5.224,8.616C310.363,44.375,310.989,48.226,310.989,52.55z M293.287,46.165
				c1.316,0,2.215-1.063,1.995-2.361c0,0-0.429-2.538-2.082-4.431c-1.657-1.892-4.142-2.838-7.45-2.838
				c-1.623,0-3.109,0.253-4.461,0.761c-1.354,0.506-2.534,1.2-3.547,2.078c-1.014,0.878-1.825,1.91-2.434,3.092
				c-0.609,1.183-0.636,1.336-0.636,1.336c-0.21,1.3,0.696,2.364,2.015,2.364L293.287,46.165L293.287,46.165z"/>
		</g>
	</g>
</g>
<rect x="5777" y="237.5" fill="none" width="400" height="400"/>
</svg>
