<?xml version="1.0" encoding="utf-8"?>
<!-- Generator: Adobe Illustrator 15.0.0, SVG Export Plug-In . SVG Version: 6.00 Build 0)  -->
<!DOCTYPE svg PUBLIC "-//W3C//DTD SVG 1.1//EN" "http://www.w3.org/Graphics/SVG/1.1/DTD/svg11.dtd">
<svg version="1.1" id="レイヤー_1" xmlns="http://www.w3.org/2000/svg" xmlns:xlink="http://www.w3.org/1999/xlink" x="0px"
	 y="0px" width="333px" height="24px" viewBox="0 0 333 24" enable-background="new 0 0 333 24" xml:space="preserve">
<g>
	<path fill="#7FBE26" d="M0.081,17.167h21.938v5.497H0.081V17.167z M1.569,2.79h18.89v5.521H1.569V2.79z"/>
	<path fill="#7FBE26" d="M25.14,17.071h13.297v-6.553c0.048-1.32-0.312-1.704-1.56-1.752H24.996V3.222h13.753
		c2.353,0,2.953,0.145,4.201,0.937c1.224,0.888,1.632,1.68,1.632,3.288v15.17H25.14V17.071z"/>
	<path fill="#7FBE26" d="M49.087,2.118h5.736v12.889h-5.736V2.118z M49.255,17.768h7.464c3.84-0.168,4.777-1.152,4.729-5.112V2.118
		h5.88v10.585c0,4.128-0.432,5.88-1.824,7.513c-1.729,1.896-4.177,2.832-7.633,2.856h-8.617V17.768z"/>
	<path fill="#7FBE26" d="M70.67,17.312h8.017V8.118h-6.745V2.766h19.345v5.353h-6.696v9.193h8.017v5.376H70.67V17.312z"/>
	<path fill="#7FBE26" d="M94.752,8.671h21.049v5.064h-6.792c-0.12,3.456-0.36,4.729-1.224,6.24c-1.249,2.185-3.648,3.36-6.865,3.408
		h-4.873v-5.521h3.602c1.56-0.023,2.711-0.624,3.023-1.608c0.168-0.456,0.192-0.912,0.217-2.52h-8.137V8.671z M96.047,2.262h13.082
		v2.904h5.064v2.232H96.047V2.262z M109.824,0.773h2.664v3.793h-2.664V0.773z M113.232,0.773h2.688v3.793h-2.688V0.773z"/>
	<path fill="#7FBE26" d="M121.439,6.03V2.262h5.617V6.03h5.088V2.262h2.904V6.03h5.521v5.16h-2.641v2.929
		c0.097,5.784-3.312,8.881-9.864,8.977h-6.625v-5.208h5.473c3.744-0.024,5.305-1.345,5.232-4.44V11.19h-5.088v4.608h-5.617V11.19
		h-2.881V6.03H121.439z M138.361,1.614v3.672h-2.473V1.614H138.361z M139.009,1.614h2.497v3.672h-2.497V1.614z"/>
	<path fill="#7FBE26" d="M143.291,10.975l12.602-5.232c2.184-0.888,2.424-1.248,2.592-3.696h5.929
		c-0.216,5.377-0.769,6.049-7.128,8.809v12.529h-5.857V13.279l-8.137,3.288V10.975z"/>
	<path fill="#7FBE26" d="M167.495,17.239h8.496c2.353-0.024,4.081-0.576,5.089-1.608c0.888-1.008,1.032-1.656,1.032-4.561V4.734
		h5.952v7.944c0,3.528-0.672,5.425-2.496,7.297c-1.896,1.872-4.729,2.904-8.041,2.904h-10.032V17.239z M178.464,10.783
		c-2.688-0.864-6.865-1.969-10.777-2.856V2.334c5.257,1.128,6.528,1.464,10.777,2.641V10.783z"/>
	<path fill="#7FBE26" d="M191.444,2.646h15.146c-0.216,0.768-0.265,1.151-0.265,1.655c0,2.089,1.633,3.696,3.745,3.696
		c0.384,0,0.744-0.048,1.439-0.216c-0.216,7.033-0.432,8.185-2.063,10.825c-2.329,3.216-4.993,4.177-11.617,4.104h-4.873v-5.448
		h4.608c2.425,0,3.313-0.097,4.297-0.456c1.368-0.48,2.521-1.513,2.952-2.641c0.264-0.696,0.504-3.097,0.504-5.232
		c0-0.144,0-0.384-0.023-0.768h-13.85V2.646z M213.311,4.158c0,1.776-1.416,3.192-3.169,3.192c-1.775,0-3.192-1.416-3.192-3.217
		c0-1.752,1.44-3.144,3.24-3.144C211.895,0.99,213.311,2.43,213.311,4.158z M208.918,4.158c0,0.672,0.552,1.224,1.224,1.224
		c0.673,0,1.225-0.552,1.225-1.224s-0.552-1.225-1.248-1.225C209.47,2.934,208.918,3.486,208.918,4.158z"/>
	<path fill="#7FBE26" d="M215.723,8.118h19.778c0.023,6.48-0.192,8.425-1.152,10.465c-1.272,2.736-5.16,4.561-9.601,4.537h-8.233
		v-5.232h6.697c4.872-0.097,6.48-1.248,6.408-4.657h-13.897V8.118z M216.515,2.046h17.954v4.969h-17.954V2.046z"/>
	<path fill="#7FBE26" d="M238.725,17.239h8.496c2.353-0.024,4.081-0.576,5.089-1.608c0.888-1.008,1.032-1.656,1.032-4.561V4.734
		h5.952v7.944c0,3.528-0.672,5.425-2.496,7.297c-1.896,1.872-4.729,2.904-8.041,2.904h-10.032V17.239z M249.693,10.783
		c-2.688-0.864-6.865-1.969-10.777-2.856V2.334c5.257,1.128,6.529,1.464,10.777,2.641V10.783z"/>
	<path fill="#7FBE26" d="M261.913,17.167h21.938v5.497h-21.938V17.167z M263.401,2.79h18.89v5.521h-18.89V2.79z"/>
	<path fill="#7FBE26" d="M286.785,17.239h8.496c2.353-0.024,4.081-0.576,5.089-1.608c0.888-1.008,1.032-1.656,1.032-4.561V4.734
		h5.952v7.944c0,3.528-0.672,5.425-2.496,7.297c-1.896,1.872-4.729,2.904-8.041,2.904h-10.032V17.239z M297.754,10.783
		c-2.688-0.864-6.865-1.969-10.777-2.856V2.334c5.257,1.128,6.529,1.464,10.777,2.641V10.783z"/>
	<path fill="#7FBE26" d="M318.575,7.902c-0.504,2.809-1.104,4.152-2.304,5.209c-1.272,1.104-3.36,1.992-5.713,2.424V9.799
		c2.377-0.456,2.736-1.345,2.929-7.177h12.001v3.145h5.544v6.384c-0.023,5.497-0.743,7.489-3.432,9.386
		c-2.448,1.536-4.44,1.896-10.681,1.896h-4.777v-5.208h6.721c5.064-0.048,6.193-1.032,6.217-5.353V7.902H318.575z M326.16,1.374
		h2.712v3.792h-2.712V1.374z M329.593,1.374h2.688v3.792h-2.688V1.374z"/>
</g>
</svg>
