<?xml version="1.0" encoding="utf-8"?>
<!-- Generator: Adobe Illustrator 15.0.0, SVG Export Plug-In . SVG Version: 6.00 Build 0)  -->
<!DOCTYPE svg PUBLIC "-//W3C//DTD SVG 1.1//EN" "http://www.w3.org/Graphics/SVG/1.1/DTD/svg11.dtd">
<svg version="1.1" id="レイヤー_1" xmlns="http://www.w3.org/2000/svg" xmlns:xlink="http://www.w3.org/1999/xlink" x="0px"
	 y="0px" width="184px" height="48px" viewBox="0 0 184 48" enable-background="new 0 0 184 48" xml:space="preserve">
<g>
	<path fill="#FFFFFF" d="M32.566,17.6c0,2.48-0.46,4.57-1.38,6.27c-0.92,1.7-2.16,3.07-3.72,4.11s-3.36,1.799-5.4,2.279
		s-4.16,0.721-6.359,0.721h-5.101V47H0.347V4.52h15.601c2.319,0,4.489,0.23,6.51,0.69c2.02,0.46,3.779,1.2,5.279,2.22
		s2.68,2.36,3.54,4.02C32.137,13.11,32.566,15.161,32.566,17.6z M22.307,17.66c0-1-0.2-1.82-0.6-2.46c-0.4-0.64-0.94-1.14-1.62-1.5
		c-0.681-0.36-1.45-0.6-2.311-0.72s-1.75-0.18-2.67-0.18h-4.5v10.02h4.32c0.96,0,1.88-0.08,2.76-0.24c0.88-0.16,1.67-0.44,2.37-0.84
		c0.699-0.399,1.25-0.93,1.65-1.59C22.106,19.49,22.307,18.66,22.307,17.66z"/>
	<path fill="#FFFFFF" d="M56.23,25.221c-0.44-0.121-0.87-0.2-1.29-0.241c-0.42-0.04-0.83-0.06-1.229-0.06
		c-1.32,0-2.431,0.24-3.33,0.719c-0.9,0.479-1.62,1.057-2.16,1.734c-0.54,0.68-0.93,1.417-1.17,2.215s-0.36,1.495-0.36,2.094V47
		h-9.84V17.156h9.48v4.32h0.12c0.759-1.53,1.839-2.779,3.239-3.745c1.4-0.967,3.02-1.451,4.86-1.451c0.399,0,0.789,0.021,1.17,0.06
		c0.38,0.041,0.69,0.101,0.93,0.18L56.23,25.221z"/>
	<path fill="#FFFFFF" d="M91.906,31.939c0,2.441-0.44,4.65-1.319,6.631c-0.881,1.979-2.08,3.66-3.601,5.039
		c-1.521,1.381-3.28,2.451-5.279,3.211c-2.001,0.76-4.141,1.14-6.42,1.14c-2.241,0-4.371-0.38-6.391-1.14s-3.779-1.83-5.279-3.211
		c-1.5-1.379-2.691-3.06-3.57-5.039c-0.881-1.98-1.32-4.189-1.32-6.631c0-2.439,0.439-4.639,1.32-6.6
		c0.879-1.959,2.07-3.62,3.57-4.98c1.5-1.359,3.26-2.4,5.279-3.12c2.02-0.72,4.149-1.08,6.391-1.08c2.279,0,4.419,0.36,6.42,1.08
		c1.999,0.72,3.759,1.76,5.279,3.12c1.521,1.36,2.72,3.021,3.601,4.98C91.466,27.301,91.906,29.5,91.906,31.939z M82.427,31.939
		c0-0.959-0.16-1.898-0.48-2.819c-0.319-0.92-0.779-1.729-1.38-2.431c-0.6-0.699-1.34-1.27-2.22-1.709
		c-0.88-0.439-1.9-0.66-3.06-0.66c-1.16,0-2.181,0.221-3.061,0.66c-0.88,0.44-1.61,1.01-2.189,1.709
		c-0.581,0.701-1.021,1.511-1.32,2.431c-0.3,0.921-0.45,1.86-0.45,2.819c0,0.961,0.15,1.9,0.45,2.82c0.3,0.921,0.75,1.75,1.35,2.49
		c0.601,0.74,1.34,1.33,2.221,1.77c0.879,0.441,1.899,0.66,3.06,0.66s2.18-0.219,3.06-0.66c0.88-0.439,1.62-1.029,2.221-1.77
		c0.6-0.74,1.05-1.569,1.35-2.49C82.276,33.84,82.427,32.9,82.427,31.939z"/>
	<path fill="#FFFFFF" d="M116.403,8.9c-0.36-0.12-0.78-0.219-1.26-0.3c-0.48-0.08-0.96-0.12-1.44-0.12c-0.92,0-1.66,0.16-2.22,0.48
		c-0.561,0.321-1,0.75-1.32,1.29s-0.54,1.15-0.659,1.83c-0.12,0.681-0.181,1.36-0.181,2.04v3h6.66v7.32h-6.66V47h-9.84V24.44h-5.46
		v-7.32h5.46v-2.88c0-1.84,0.2-3.59,0.6-5.25c0.399-1.66,1.09-3.12,2.07-4.38c0.979-1.26,2.3-2.259,3.96-3
		c1.659-0.74,3.729-1.11,6.21-1.11c0.84,0,1.67,0.051,2.49,0.15c0.819,0.101,1.569,0.25,2.25,0.45L116.403,8.9z M130.684,7.58
		c0,0.76-0.15,1.47-0.45,2.13s-0.711,1.23-1.229,1.71c-0.521,0.48-1.121,0.861-1.801,1.14c-0.681,0.28-1.4,0.42-2.16,0.42
		c-1.6,0-2.939-0.53-4.02-1.59c-1.08-1.06-1.62-2.33-1.62-3.81c0-0.72,0.14-1.41,0.42-2.07c0.279-0.66,0.68-1.23,1.2-1.71
		c0.52-0.48,1.119-0.87,1.8-1.17c0.68-0.3,1.42-0.45,2.22-0.45c0.76,0,1.479,0.141,2.16,0.42c0.68,0.28,1.28,0.66,1.801,1.14
		c0.519,0.48,0.93,1.05,1.229,1.71C130.533,6.11,130.684,6.821,130.684,7.58z M120.063,47V17.12h9.9V47H120.063z"/>
	<path fill="#FFFFFF" d="M137.049,47V1.64h10.021V47H137.049z"/>
	<path fill="#FFFFFF" d="M183.753,32.42c0,0.4,0,0.801,0,1.2c0,0.4-0.021,0.78-0.061,1.14h-21.66c0.08,0.84,0.33,1.601,0.75,2.28
		c0.42,0.681,0.96,1.271,1.62,1.771s1.399,0.891,2.22,1.17c0.819,0.279,1.67,0.42,2.551,0.42c1.56,0,2.88-0.29,3.96-0.871
		c1.08-0.578,1.959-1.328,2.64-2.25l6.84,4.32c-1.4,2.041-3.25,3.611-5.55,4.711c-2.301,1.1-4.971,1.649-8.01,1.649
		c-2.241,0-4.36-0.351-6.36-1.05c-2.001-0.699-3.75-1.72-5.25-3.061c-1.5-1.34-2.681-2.989-3.54-4.949
		c-0.86-1.96-1.29-4.2-1.29-6.721c0-2.439,0.42-4.65,1.26-6.63c0.841-1.98,1.98-3.66,3.42-5.04c1.44-1.38,3.141-2.449,5.101-3.21
		c1.959-0.759,4.08-1.14,6.36-1.14c2.199,0,4.219,0.37,6.06,1.11c1.839,0.741,3.42,1.81,4.74,3.21c1.319,1.401,2.349,3.1,3.09,5.1
		C183.382,27.58,183.753,29.861,183.753,32.42z M174.692,28.641c0-1.561-0.49-2.9-1.47-4.021c-0.98-1.12-2.451-1.68-4.41-1.68
		c-0.96,0-1.841,0.15-2.64,0.45c-0.801,0.3-1.5,0.71-2.101,1.23c-0.6,0.521-1.08,1.13-1.439,1.83c-0.36,0.7-0.561,1.431-0.601,2.19
		H174.692z"/>
</g>
</svg>
