<?xml version="1.0" encoding="utf-8"?>
<!-- Generator: Adobe Illustrator 15.0.0, SVG Export Plug-In  -->
<!DOCTYPE svg PUBLIC "-//W3C//DTD SVG 1.1//EN" "http://www.w3.org/Graphics/SVG/1.1/DTD/svg11.dtd" [
	<!ENTITY ns_flows "http://ns.adobe.com/Flows/1.0/">
]>
<svg version="1.1"
	 xmlns="http://www.w3.org/2000/svg" xmlns:xlink="http://www.w3.org/1999/xlink" xmlns:a="http://ns.adobe.com/AdobeSVGViewerExtensions/3.0/"
	 x="0px" y="0px" width="156px" height="47px" viewBox="0 0 156 47" enable-background="new 0 0 156 47" xml:space="preserve">
<defs>
</defs>
<path fill="#FFFFFF" d="M49.38,45.36H39.24l-8.4-28.74h-0.18l-8.4,28.74h-10.2L0,2.88h11.04l6.72,28.259h0.181L25.5,2.88h10.68
	l7.62,28.259h0.181L50.82,2.88H61.5L49.38,45.36z"/>
<path fill="#FFFFFF" d="M94.422,30.299c0,2.441-0.439,4.65-1.318,6.631c-0.881,1.979-2.08,3.66-3.602,5.039
	c-1.521,1.381-3.279,2.451-5.279,3.211s-4.141,1.141-6.42,1.141c-2.241,0-4.371-0.381-6.391-1.141
	c-2.021-0.76-3.779-1.83-5.279-3.211c-1.5-1.379-2.691-3.06-3.57-5.039c-0.881-1.979-1.32-4.188-1.32-6.631
	c0-2.438,0.439-4.639,1.32-6.6c0.879-1.959,2.07-3.62,3.57-4.98c1.5-1.358,3.259-2.399,5.279-3.12s4.149-1.08,6.391-1.08
	c2.279,0,4.42,0.36,6.42,1.08s3.76,1.76,5.279,3.12c1.521,1.36,2.721,3.021,3.602,4.98C93.98,25.661,94.422,27.86,94.422,30.299z
	 M84.941,30.299c0-0.959-0.159-1.898-0.479-2.818c-0.319-0.92-0.778-1.729-1.38-2.432c-0.6-0.699-1.34-1.269-2.221-1.709
	c-0.879-0.439-1.899-0.66-3.06-0.66c-1.161,0-2.181,0.221-3.061,0.66c-0.88,0.44-1.61,1.012-2.189,1.709
	c-0.581,0.701-1.021,1.512-1.32,2.432c-0.3,0.92-0.45,1.859-0.45,2.818c0,0.961,0.15,1.9,0.45,2.82c0.3,0.921,0.75,1.75,1.35,2.49
	c0.601,0.74,1.34,1.33,2.221,1.77c0.879,0.441,1.899,0.66,3.06,0.66s2.18-0.219,3.06-0.66c0.88-0.439,1.62-1.029,2.222-1.77
	c0.6-0.74,1.049-1.569,1.35-2.49C84.792,32.2,84.941,31.26,84.941,30.299z"/>
<path fill="#FFFFFF" d="M119.242,23.58c-0.44-0.12-0.87-0.2-1.29-0.24s-0.83-0.06-1.229-0.06c-1.32,0-2.431,0.24-3.33,0.718
	c-0.899,0.479-1.619,1.057-2.16,1.734c-0.539,0.681-0.93,1.418-1.17,2.216c-0.239,0.798-0.359,1.495-0.359,2.094V45.36h-9.84V15.516
	h9.479v4.32h0.12c0.76-1.53,1.839-2.779,3.239-3.745c1.399-0.967,3.021-1.451,4.86-1.451c0.398,0,0.789,0.021,1.17,0.061
	c0.379,0.041,0.689,0.101,0.93,0.18L119.242,23.58z"/>
<path fill="#FFFFFF" d="M155.279,45.36h-12.182l-9.779-14.341h-0.18V45.36h-9.899V0h9.899v27.6h0.18l9.539-12.12h11.94l-11.521,13.5
	L155.279,45.36z"/>
</svg>
